<?xml version="1.0" encoding="UTF-8"?>
<svg width="84px" height="24px" viewBox="0 0 84 24" version="1.1" xmlns="http://www.w3.org/2000/svg" xmlns:xlink="http://www.w3.org/1999/xlink">
    <!-- Generator: Sketch 48.2 (47327) - http://www.bohemiancoding.com/sketch -->
    <title>autumn</title>
    <desc>Created with Sketch.</desc>
    <defs></defs>
    <g id="Artboard-4" stroke="none" stroke-width="1" fill="none" fill-rule="evenodd" transform="translate(-786.000000, -52.000000)" fill-opacity="0.1">
        <g id="autumn" transform="translate(786.000000, 52.000000)" fill="#FFFFFF" fill-rule="nonzero">
            <path d="M8,-1.77635684e-15 L38,15 L40.0000003,16 L40,2.18 C40.0001682,1.44673189 39.9196843,0.715669673 39.76,-1.77635684e-15 L37.7,-1.77635684e-15 C37.8999412,0.709378369 38.000896,1.44298349 38,2.18 L38,12.76 L12.47,-3.88578059e-16 L8,-1.77635684e-15 Z M39.76,24 C39.102629,21.0659655 37.1599508,18.5834506 34.47,17.24 L2,1 L0,0 L0,13.82 C0.00202218169,17.6066571 2.14270588,21.0673646 5.53,22.76 L8,24 L12.47,24 L6.42,20.98 C3.70914091,19.6234861 1.99782976,16.8513169 2,13.82 L2,3.24 L33.58,19.02 C35.5926266,20.0266548 37.0882086,21.8344213 37.7,24 L39.76,24 Z M76,24 L78.47,22.76 C81.8572941,21.0673646 83.9979778,17.6066571 84,13.82 L84,0 L82,1 L49.53,17.24 C46.8400492,18.5834506 44.897371,21.0659655 44.24,24 L46.3,24 C46.9117914,21.8344213 48.4073734,20.0266548 50.42,19.02 L82,3.24 L82,13.82 C82.0021702,16.8513169 80.2908591,19.6234861 77.58,20.98 L71.53,24 L76,24 Z M76,0 L46,15 L43.9999997,16 L44,2.18 C43.9998318,1.44673189 44.0803157,0.715669673 44.24,3.05311332e-15 L46.3,3.05311332e-15 C46.1000588,0.709378369 45.999104,1.44298349 46,2.18 L46,12.76 L71.53,0 L76,0 Z" id="Shape"></path>
        </g>
    </g>
</svg>