<?xml version="1.0" encoding="UTF-8"?>
<svg width="122px" height="122px" viewBox="0 0 122 122" version="1.1" xmlns="http://www.w3.org/2000/svg" xmlns:xlink="http://www.w3.org/1999/xlink">
    <!-- Generator: Sketch 48.2 (47327) - http://www.bohemiancoding.com/sketch -->
    <title>Group 26</title>
    <desc>Created with Sketch.</desc>
    <defs></defs>
    <g id="year-in-review-new" stroke="none" stroke-width="1" fill="none" fill-rule="evenodd" transform="translate(-250.000000, -12791.000000)">
        <g id="Group-26" transform="translate(250.000000, 12791.000000)">
            <circle id="Oval-4" fill="#CABFD7" cx="61" cy="61" r="61"></circle>
            <g id="noun_contract_1314677" transform="translate(33.000000, 27.000000)" fill="#634B80" fill-rule="nonzero">
                <g id="Group" transform="translate(0.000000, 0.505589)">
                    <path d="M61.23624,0.292880488 C60.7183746,0.338122489 60.2555646,0.63450927 59.9975937,1.08611829 L56.9010571,6.41556341 C56.8839797,6.43993459 56.8675911,6.46478182 56.8519107,6.49007561 C56.8244918,6.53830678 56.7996202,6.58794409 56.7773985,6.63878293 L47.5622217,22.4785695 L47.5622217,5.00276463 C47.5621436,4.12663231 46.8524058,3.41639769 45.9768559,3.41628902 L1.58550109,3.41628902 C1.53598564,3.41396418 1.48638848,3.41396418 1.43687304,3.41628902 C0.619833358,3.49336189 -0.0034139344,4.18156445 0.000135231707,5.00276463 L0.000135231707,62.1152683 C0.000213306184,62.9914006 0.709951106,63.7016352 1.58550109,63.7017439 L45.9768559,63.7017439 C46.8524058,63.7016352 47.5621436,62.9914006 47.5622217,62.1152683 L47.5622217,44.6642744 C47.5663549,44.5982293 47.5663549,44.5319902 47.5622217,44.4659451 L66.2402864,12.2409902 C66.2664063,12.2089201 66.2912627,12.17584 66.3147986,12.1418256 L66.3393718,12.1172524 C66.3569015,12.0847796 66.3732936,12.0517046 66.3885181,12.0180878 C66.4152264,11.9779178 66.4400896,11.9365496 66.4630303,11.8941122 L69.5347559,6.58939878 C69.7503619,6.22501853 69.8114571,5.78951179 69.7044431,5.37981248 C69.5974291,4.97011317 69.3311867,4.62022122 68.9649754,4.40801463 L62.1526607,0.491447561 C61.8741297,0.334387501 61.554656,0.265253865 61.2361607,0.293118293 L61.23624,0.292880488 Z M61.9298376,4.03592927 L65.9924145,6.3661 L64.4565913,9.04322805 L60.3939351,6.71305732 L61.9298376,4.03592927 Z M3.17078799,6.58916098 L44.3912522,6.58916098 L44.3912522,27.956722 L37.9506241,39.0371768 C37.8681728,39.183972 37.8096004,39.3429656 37.7771059,39.508189 C37.632362,40.201628 36.9841059,43.0569512 36.3404473,45.8787439 C35.6966302,48.7006951 35.0523376,51.4857866 34.8788985,52.3237317 C34.7405176,52.9922755 35.0450485,53.6744415 35.6349894,54.017417 C36.2249303,54.3603925 36.9679851,54.2872642 37.4798498,53.8358537 C38.1223193,53.2678171 40.2255449,51.3148049 42.3600022,49.3491098 C43.2583498,48.5218659 43.6062583,48.2078049 44.3912522,47.4900305 L44.3912522,60.5287134 L3.17078799,60.5287134 L3.17078799,6.58916098 Z M58.7837583,9.46461829 L62.8463376,11.7947098 L44.936301,42.681061 C44.2335083,43.3090244 42.3012644,45.111189 40.2295876,47.0190976 C39.7387583,47.4710854 39.588862,47.5991829 39.1149168,48.0353963 C39.2550632,47.4197988 39.2916851,47.2342317 39.4369046,46.597628 C40.0531363,43.8966402 40.5953315,41.3809024 40.799368,40.4253232 L58.7837583,9.46461829 Z M11.7419107,19.2808073 C11.1754943,19.3073748 10.6662681,19.6343047 10.4060528,20.1384458 C10.1458374,20.6425868 10.1741657,21.2473479 10.4803668,21.7249214 C10.7865678,22.2024949 11.3241224,22.480326 11.8905388,22.4537585 L35.6715815,22.4537585 C36.2430426,22.4613939 36.77439,22.1606944 37.0623459,21.6666988 C37.3503019,21.1727031 37.3503019,20.5618627 37.0623459,20.0678671 C36.77439,19.5738715 36.2430426,19.2731719 35.6715815,19.2808073 L11.8905388,19.2808073 C11.8410233,19.2784825 11.7914262,19.2784825 11.7419107,19.2808073 Z M11.7419107,25.6266305 C11.1754943,25.6531979 10.666268,25.9801278 10.4060526,26.4842689 C10.1458372,26.9884099 10.1741655,27.5931711 10.4803666,28.0707446 C10.7865677,28.5483181 11.3241223,28.8261493 11.8905388,28.7995817 L35.6715815,28.7995817 C36.2430426,28.8072171 36.77439,28.5065176 37.0623459,28.0125219 C37.3503019,27.5185263 37.3503019,26.9076859 37.0623459,26.4136903 C36.77439,25.9196946 36.2430426,25.6189951 35.6715815,25.6266305 L11.8905388,25.6266305 C11.8410233,25.6243056 11.7914262,25.6243056 11.7419107,25.6266305 Z M11.7419107,31.9724695 C10.8663069,32.0135394 10.1897613,32.7571224 10.2308038,33.6333086 C10.2718463,34.5094948 11.0149349,35.1864904 11.8905388,35.1454207 L35.6715815,35.1454207 C36.2430426,35.1530561 36.77439,34.8523566 37.0623459,34.358361 C37.3503019,33.8643653 37.3503019,33.2535249 37.0623459,32.7595293 C36.77439,32.2655337 36.2430426,31.9648341 35.6715815,31.9724695 L11.8905388,31.9724695 C11.8410233,31.9701447 11.7914262,31.9701447 11.7419107,31.9724695 Z M11.7419107,38.3182927 C11.1754943,38.3448601 10.666268,38.67179 10.4060526,39.1759311 C10.1458372,39.6800721 10.1741655,40.2848333 10.4803666,40.7624068 C10.7865677,41.2399803 11.3241223,41.5178115 11.8905388,41.4912439 L35.6715815,41.4912439 C36.2430426,41.4988793 36.77439,41.1981798 37.0623459,40.7041841 C37.3503019,40.2101885 37.3503019,39.5993481 37.0623459,39.1053525 C36.77439,38.6113568 36.2430426,38.3106573 35.6715815,38.3182927 L11.8905388,38.3182927 C11.8410233,38.3159678 11.7914262,38.3159678 11.7419107,38.3182927 Z M11.7419107,44.6641951 C11.1733556,44.6878284 10.6609533,45.0142348 10.3989205,45.519696 C10.1368877,46.0251573 10.1653289,46.6323118 10.4734639,47.111029 C10.781599,47.5897461 11.3222674,47.8667575 11.8905388,47.8370671 L30.9153254,47.8370671 C31.4874347,47.8457145 32.0198226,47.545247 32.308401,47.0508473 C32.5969794,46.5564475 32.5969794,45.9448147 32.308401,45.4504149 C32.0198226,44.9560152 31.4874347,44.6555477 30.9153254,44.6641951 L11.8905388,44.6641951 C11.8410233,44.6618703 11.7914262,44.6618703 11.7419107,44.6641951 Z" id="Shape"></path>
                </g>
            </g>
        </g>
    </g>
</svg>