<?xml version="1.0" encoding="UTF-8"?>
<svg width="122px" height="122px" viewBox="0 0 122 122" version="1.1" xmlns="http://www.w3.org/2000/svg" xmlns:xlink="http://www.w3.org/1999/xlink">
    <!-- Generator: Sketch 48.2 (47327) - http://www.bohemiancoding.com/sketch -->
    <title>Group 29</title>
    <desc>Created with Sketch.</desc>
    <defs></defs>
    <g id="year-in-review-new" stroke="none" stroke-width="1" fill="none" fill-rule="evenodd" transform="translate(-510.000000, -12791.000000)">
        <g id="Group-29" transform="translate(510.000000, 12791.000000)">
            <circle id="Oval-4-Copy" fill="#CABFD7" cx="61" cy="61" r="61"></circle>
            <g id="noun_HTML-Code_983877" transform="translate(31.000000, 35.000000)">
                <g id="Group" transform="translate(0.000000, 0.469506)">
                    <g transform="translate(0.000000, -0.000002)">
                        <rect id="Rectangle-path" stroke="#634B80" stroke-width="4" stroke-linecap="round" stroke-linejoin="round" transform="translate(30.916667, 31.919397) rotate(180.000000) translate(-30.916667, -31.919397) " x="0" y="12.0443972" width="61.8333333" height="39.75"></rect>
                        <rect id="Rectangle-path" stroke="#634B80" stroke-width="4" stroke-linecap="round" stroke-linejoin="round" transform="translate(30.916667, 6.155494) rotate(180.000000) translate(-30.916667, -6.155494) " x="0" y="0.266604722" width="61.8333333" height="11.7777778"></rect>
                        <polyline id="Shape" stroke="#634B80" stroke-width="4" stroke-linecap="round" stroke-linejoin="round" points="22.9240723 21.5091667 12.5138889 31.9193972 22.9240723 42.3295542"></polyline>
                        <polyline id="Shape" stroke="#634B80" stroke-width="4" stroke-linecap="round" stroke-linejoin="round" points="38.909261 21.5091667 49.3194444 31.9193972 38.909261 42.3295542"></polyline>
                        <rect id="Rectangle-path" fill="#634B80" fill-rule="nonzero" transform="translate(41.222222, 6.155494) rotate(180.000000) translate(-41.222222, -6.155494) " x="39.0138889" y="3.94716028" width="4.41666667" height="4.41666667"></rect>
                        <rect id="Rectangle-path" fill="#634B80" fill-rule="nonzero" transform="translate(48.583333, 6.155494) rotate(180.000000) translate(-48.583333, -6.155494) " x="46.375" y="3.94716028" width="4.41666667" height="4.41666667"></rect>
                        <rect id="Rectangle-path" fill="#634B80" fill-rule="nonzero" transform="translate(55.944444, 6.155494) rotate(180.000000) translate(-55.944444, -6.155494) " x="53.7361111" y="3.94716028" width="4.41666667" height="4.41666667"></rect>
                    </g>
                </g>
            </g>
        </g>
    </g>
</svg>