<?xml version="1.0" encoding="UTF-8"?>
<svg width="122px" height="122px" viewBox="0 0 122 122" version="1.1" xmlns="http://www.w3.org/2000/svg" xmlns:xlink="http://www.w3.org/1999/xlink">
    <!-- Generator: Sketch 48.2 (47327) - http://www.bohemiancoding.com/sketch -->
    <title>Group 32</title>
    <desc>Created with Sketch.</desc>
    <defs></defs>
    <g id="year-in-review-new" stroke="none" stroke-width="1" fill="none" fill-rule="evenodd" transform="translate(-757.000000, -12791.000000)">
        <g id="Group-32" transform="translate(757.000000, 12791.000000)">
            <circle id="Oval-4-Copy-2" fill="#CABFD7" cx="61" cy="61" r="61"></circle>
            <g id="noun_growth_2069205" transform="translate(24.000000, 24.000000)" fill="#634B80" fill-rule="nonzero">
                <path d="M54.6760927,0.000508038908 C54.1899787,-0.0106587525 53.7219577,0.162705684 53.392526,0.476604191 L40.7088124,12.5834999 C39.7174007,13.5306392 40.4826271,15.0603779 41.9478672,15.0605454 L45.3382075,15.0605454 L45.3382075,28.7399487 C44.4527359,28.3144939 43.4455879,28.0676799 42.3702822,28.0676799 L36.6988191,28.0676799 C33.1325299,28.0676799 30.2912486,30.7334722 30.2912486,33.9018259 L30.2912486,39.1257347 C29.383308,38.6697946 28.3397261,38.4087429 27.2246185,38.4087429 L21.5532396,38.4087429 C17.9823214,38.4087429 15.1455807,41.0867629 15.1455807,44.2630729 L15.1455807,49.4740003 C14.2385675,49.0142914 13.1959947,48.749778 12.0790365,48.749778 L6.40757424,48.749778 C2.82487615,48.749778 0,51.4615496 0,54.658937 L0,63.5227452 C8.39608027e-05,64.338563 0.753530076,64.9999442 1.68284227,65 L62.2418579,65 C63.1712531,64.9999442 63.9246168,64.338563 63.9246995,63.5227452 L63.9246995,15.0605454 L67.3137773,15.0605454 C68.7791,15.0604617 69.5443264,13.5306671 68.5530006,12.5834999 L55.8691184,0.476604191 C55.5610713,0.182917577 55.1306514,0.0112002417 54.6760927,0.000508038909 Z M54.6298188,3.65768806 L63.4795737,12.1059799 L62.2403504,12.1059799 C61.3110379,12.1060358 60.5575914,12.7674169 60.5575056,13.5832627 L60.5575056,62.0453787 L48.7036459,62.0453787 C48.7945399,45.812884 48.8022681,30.2837018 48.7036459,13.5832627 C48.7035632,12.7674169 47.9501995,12.1060358 47.0208043,12.1059799 L45.7817496,12.1059799 L54.6298188,3.65768806 Z M36.6985742,31.0222454 L42.3700373,31.0222454 C43.8170159,31.0222454 45.0375579,31.9411886 45.3379627,33.2656259 L45.3379627,62.0453787 L33.6569383,62.0453787 L33.6569383,33.9018259 C33.6569383,32.2436412 35.0294493,31.0222454 36.6988254,31.0222454 L36.6985742,31.0222454 Z M21.5529915,41.3633084 L27.2243736,41.3633084 C28.8891223,41.3633084 30.2663466,42.5895896 30.2663466,44.2630729 C30.2656724,44.3510114 30.2746155,44.4389499 30.2908352,44.5257717 L30.2908352,62.0454903 L18.5107606,62.0454903 L18.5107606,44.2631846 C18.5107606,42.5896734 19.8877308,41.3634201 21.5527339,41.3634201 L21.5529915,41.3633084 Z M6.40732808,51.7043156 L12.0787903,51.7043156 C13.7317607,51.7043156 15.1206797,52.9458953 15.1206797,54.658937 C15.1200067,54.7468755 15.1291076,54.8348139 15.1450728,54.9216357 L15.1450728,62.0454903 L3.36517982,62.0454903 L3.36517982,54.6590486 C3.36517982,52.946007 4.75418313,51.7044273 6.40706921,51.7044273 L6.40732808,51.7043156 Z" id="Shape"></path>
            </g>
        </g>
    </g>
</svg>