<?xml version="1.0" encoding="UTF-8"?>
<svg width="28px" height="49px" viewBox="0 0 28 49" version="1.1" xmlns="http://www.w3.org/2000/svg" xmlns:xlink="http://www.w3.org/1999/xlink">
    <!-- Generator: Sketch 48.2 (47327) - http://www.bohemiancoding.com/sketch -->
    <title>hexagons</title>
    <desc>Created with Sketch.</desc>
    <defs></defs>
    <g id="Artboard-4" stroke="none" stroke-width="1" fill="none" fill-rule="evenodd" transform="translate(-1032.000000, -52.000000)" fill-opacity="0.1">
        <g id="hexagons" transform="translate(1032.000000, 52.000000)" fill="#FFFFFF" fill-rule="nonzero">
            <path d="M13.99,9.25 L26.99,16.75 L26.99,31.75 L13.99,39.25 L1,31.75 L1,16.75 L13.99,9.25 Z M3,17.9 L3,30.6 L13.99,36.94 L24.99,30.59 L24.99,17.9 L13.99,11.56 L3,17.9 Z M0,15 L12.98,7.5 L12.98,0 L10.98,0 L10.98,6.35 L0,12.69 L0,14.99 L0,15 Z M0,33.5 L12.98,41 L12.98,49 L10.98,49 L10.98,42.15 L0,35.81 L0,33.51 L0,33.5 Z M15,0 L15,7.5 L27.99,15 L28,15 L28,12.69 L27.99,12.69 L17,6.35 L17,0 L15,0 Z M15,49 L15,41 L27.99,33.5 L28,33.5 L28,35.81 L27.99,35.81 L17,42.15 L17,49 L15,49 Z" id="Shape"></path>
        </g>
    </g>
</svg>