<?xml version="1.0" encoding="UTF-8"?>
<svg width="243px" height="260px" viewBox="0 0 243 260" version="1.1" xmlns="http://www.w3.org/2000/svg" xmlns:xlink="http://www.w3.org/1999/xlink">
    <!-- Generator: Sketch 48.2 (47327) - http://www.bohemiancoding.com/sketch -->
    <title>Page 1</title>
    <desc>Created with Sketch.</desc>
    <defs>
        <circle id="path-1" cx="121.5" cy="121.5" r="121.5"></circle>
        <polygon id="path-3" points="39.906151 0 84.8616601 205.270134 73.2498158 205.270134 43.8436427 111.232454 0 0"></polygon>
        <path d="M127.73913,0 C117.175551,37.3945749 104.018153,100.040613 99.9767723,106.84832 C97.2825486,111.386821 66.8240909,130.670191 8.60146174,164.698286 L0.603723715,156.119483 C49.9488228,116.430774 74.9839415,95.7742226 75.709196,94.1497925 C76.7969439,91.7133264 83.6057075,39.0878611 84.072536,0 L127.73913,0 Z" id="path-5"></path>
        <polygon id="path-7" points="50.0237154 0 90.9399881 189.578329 35.7312253 195.584261 0.575362055 0"></polygon>
        <path d="M120.413247,0 C115.36103,56.2667782 109.668957,90.7682343 103.337026,103.504368 C97.0050063,116.240502 74.7675889,143.487448 36.6245059,185.245169 L0.41087336,142.279109 C38.6177991,101.534494 58.2016103,80.0103916 59.1624229,77.7068921 C60.1232356,75.4033029 61.9834925,49.5010653 64.743283,0 L120.413247,0 Z" id="path-9"></path>
        <path d="M44.762,18.2902 C48.209,30.9923 52.7011,59.5438 48.1173,64.0225 L19.1173,64.0225 C19.1143,63.971 19.1114,63.9197 19.1086,63.8685 C8.3599,62.679 0,53.5658 0,42.5 L0,21.5 C0,9.6259 9.6259,0 21.5,0 L23.5,0 C34.2833,0 43.2125,7.9385 44.762,18.2902 Z" id="path-11"></path>
        <path d="M24,73 L0,73 L8.2623,34.4901 C3.6544,29.0814 0.5356,22.4529 1.0568,15.0255 C2.5583,-6.375 32.3485,-1.6672 38.1433,9.1339 C43.9382,19.9351 43.2496,47.333 35.7603,49.2635 C32.7736,50.0333 26.411,48.1475 19.9354,44.2443 L24,73 Z" id="path-13"></path>
        <path d="M31.75,33.8748 C32.8557,45.7528 32.4127,59.3173 29.1173,62.5371 L0.1173,62.5371 C-1.4985,34.4635 14.1173,45.3349 14.1173,18.9028 C15.0909,17.9515 16.0108,17.01 16.9211,16.1981 L16.8889,15.4207 C21.9106,5.1402 28.2814,0 36.0014,0 C47.5814,0 51.2366,5.3883 54.3487,9.9631 C52.0215,17.9482 42.9904,19.1322 34.9657,24.1095 C34.0199,23.341 32.8137,22.8804 31.5,22.8804 C28.4624,22.8804 26,25.3428 26,28.3804 C26,31.418 28.4624,33.8804 31.5,33.8804 C31.5838,33.8804 31.6671,33.8785 31.75,33.8748 Z" id="path-15"></path>
        <path d="M156.7812,0.2115 L188.6795,23.6351 C197.3309,25.9696 204.559,28.874 210.3635,32.3485 C211.7347,33.5979 213.3918,36.1282 207.7054,35.6909 C202.0189,35.2536 196.018,35.0494 195.2333,36.989 C194.4487,38.9285 197.8899,41.248 196.3038,43.865 C195.2464,45.6096 190.251,41.235 181.3174,30.7411 L149.7298,17.6424 L156.7812,0.2115 Z M34.30793,1.0199 L55.2053,1.1021 C42.30214,42.7557 35.33635,64.8569 34.30793,67.4056 C31.99398,73.1401 36.8906,81.8737 38.98459,86.5671 C32.16454,89.6189 32.89122,78.3169 24.28792,82.3195 C16.43522,85.9728 10.46169,92.5925 1.38904,86.9944 C0.27361,86.3061 -0.94872,83.7147 2.00458,81.6897 C9.36233,76.6445 19.9653,67.8147 21.39793,64.9083 C23.35157,60.9448 27.65491,39.6487 34.30793,1.0199 Z" id="path-17"></path>
        <path d="M0.695,2.332 L9.3421,0.8489 C41.4255,28.5643 54.6032,81.8089 93.9295,110.0148 L84.464,121.7476 C16.2401,113.3005 -0.6698,48.3548 0.695,2.332 Z" id="path-19"></path>
        <path d="M0,114 C3.6048,65.5045 9.9175,29.3584 28.1718,0 L50.2413,3.4607 C50.2413,45.3115 73.0106,77.0038 78.8435,106.4042 C79.3488,108.9516 80.0076,114 76.5115,114 C60.1756,114 34.6718,114 0,114 Z" id="path-21"></path>
        <path d="M36.6148,32.858 C33.4095,31.9366 30.8712,29.7877 29,26.4112 C20.93356,11.8561 23.84673,3.8424 32.4672,1.2083 C41.0877,-1.4259 48.7753,4 62.51,4 C63.2571,4 63.9413,4.0468 64.5627,4.1405 L71.4716,4.5347 C91.294,71.7152 96.7609,116.5369 87.8723,139 L27.6518,139 C24.0838,147.3199 20.66954,154.3199 17.40899,160 L1,160 C-0.54432,110.0671 11.3273,67.6864 36.6148,32.858 Z" id="path-23"></path>
        <path d="M13.7652,0.4976 C15.6592,16.344 18.7374,27.8448 23,35 L0.6518,35 C4.8138,25.2951 9.1849,13.7943 13.7652,0.4976 Z" id="path-25"></path>
    </defs>
    <g id="year-in-review-new" stroke="none" stroke-width="1" fill="none" fill-rule="evenodd" transform="translate(-449.000000, -7325.000000)">
        <g id="interventions" transform="translate(45.000000, 7325.000000)">
            <g id="Page-1" transform="translate(404.000000, 0.000000)">
                <g id="Group-5">
                    <mask id="mask-2" fill="white">
                        <use xlink:href="#path-1"></use>
                    </mask>
                    <use id="Mask" fill="#CABFD7" xlink:href="#path-1"></use>
                    <g mask="url(#mask-2)">
                        <g transform="translate(-1.000000, 189.000000)">
                            <g id="Group-12" transform="translate(105.407115, 0.000000)">
                                <mask id="mask-4" fill="white">
                                    <use xlink:href="#path-3"></use>
                                </mask>
                                <g id="Clip-11"></g>
                                <polygon id="Fill-10" fill="#784931" mask="url(#mask-4)" points="-4.46640316 209.747122 89.3280632 209.747122 89.3280632 -4.4769964 -4.46640316 -4.4769964"></polygon>
                            </g>
                            <g id="Group-15" transform="translate(12.505929, 0.000000)">
                                <mask id="mask-6" fill="white">
                                    <use xlink:href="#path-5"></use>
                                </mask>
                                <g id="Clip-14"></g>
                                <polygon id="Fill-13" fill="#915B3C" mask="url(#mask-6)" points="-3.86267945 169.175273 132.205489 169.175273 132.205489 -4.47695163 -3.86267945 -4.47695163"></polygon>
                            </g>
                            <g id="Group-24" transform="translate(99.154150, 0.000000)">
                                <mask id="mask-8" fill="white">
                                    <use xlink:href="#path-7"></use>
                                </mask>
                                <g id="Clip-23"></g>
                                <polygon id="Fill-22" fill="#191847" mask="url(#mask-8)" points="-3.89104111 200.061249 95.4063913 200.061249 95.4063913 -4.4769964 -3.89104111 -4.4769964"></polygon>
                            </g>
                            <g id="Group-27" transform="translate(24.118577, 0.000000)">
                                <mask id="mask-10" fill="white">
                                    <use xlink:href="#path-9"></use>
                                </mask>
                                <g id="Clip-26"></g>
                                <polygon id="Fill-25" fill="#2F3676" mask="url(#mask-10)" points="-4.0555298 189.722157 124.879703 189.722157 124.879703 -4.47702326 -4.0555298 -4.47702326"></polygon>
                            </g>
                        </g>
                    </g>
                </g>
                <g id="Group-3" transform="translate(101.000000, 23.000000)">
                    <mask id="mask-12" fill="white">
                        <use xlink:href="#path-11"></use>
                    </mask>
                    <g id="Clip-2"></g>
                    <polygon id="Fill-1" fill="#191847" mask="url(#mask-12)" points="-5 69.0225 55.0658 69.0225 55.0658 -4.99997 -5 -4.99997"></polygon>
                </g>
                <g id="Group-6" transform="translate(104.000000, 27.000000)">
                    <mask id="mask-14" fill="white">
                        <use xlink:href="#path-13"></use>
                    </mask>
                    <g id="Clip-5"></g>
                    <polygon id="Fill-4" fill="#915B3C" mask="url(#mask-14)" points="-5 78 47 78 47 -5 -5 -5"></polygon>
                </g>
                <g id="Group-9" transform="translate(87.000000, 24.000000)">
                    <mask id="mask-16" fill="white">
                        <use xlink:href="#path-15"></use>
                    </mask>
                    <g id="Clip-8"></g>
                    <polygon id="Fill-7" fill="#191847" mask="url(#mask-16)" points="-5 67.5371 59.34868 67.5371 59.34868 -5.00003 -5 -5.00003"></polygon>
                </g>
                <g id="Group-30" transform="translate(24.000000, 170.000000)">
                    <mask id="mask-18" fill="white">
                        <use xlink:href="#path-17"></use>
                    </mask>
                    <g id="Clip-29"></g>
                    <polygon id="Fill-28" fill="#915B3C" mask="url(#mask-18)" points="-4.83724 94.1568 216.69476 94.1568 216.69476 -4.78847 -4.83724 -4.78847"></polygon>
                </g>
                <g id="Group-33" transform="translate(117.000000, 81.000000)">
                    <mask id="mask-20" fill="white">
                        <use xlink:href="#path-19"></use>
                    </mask>
                    <g id="Clip-32"></g>
                    <polygon id="Fill-31" fill="#C5CFD6" mask="url(#mask-20)" points="-3.6557 -5.3074 108.1819 4.4771 97.3841 127.8971 -14.4536 118.1126"></polygon>
                </g>
                <g id="Group-36" transform="translate(80.000000, 78.000000)">
                    <mask id="mask-22" fill="white">
                        <use xlink:href="#path-21"></use>
                    </mask>
                    <g id="Clip-35"></g>
                    <polygon id="Fill-34" fill="#5C63AB" mask="url(#mask-22)" points="-5 119 84.24964 119 84.24964 -5 -5 -5"></polygon>
                </g>
                <g id="Group-39" transform="translate(44.000000, 74.000000)">
                    <mask id="mask-24" fill="white">
                        <use xlink:href="#path-23"></use>
                    </mask>
                    <g id="Clip-38"></g>
                    <polygon id="Fill-37" fill="#DDE3E9" mask="url(#mask-24)" points="-4.13333 165 96.99997 165 96.99997 -4.5133 -4.13333 -4.5133"></polygon>
                </g>
                <g id="Group-42" transform="translate(71.000000, 178.000000)">
                    <mask id="mask-26" fill="white">
                        <use xlink:href="#path-25"></use>
                    </mask>
                    <g id="Clip-41"></g>
                    <polygon id="Fill-40" fill="#C5CFD6" mask="url(#mask-26)" points="-4.34819 40 28 40 28 -4.50237 -4.34819 -4.50237"></polygon>
                </g>
            </g>
        </g>
    </g>
</svg>