<?xml version="1.0" encoding="UTF-8"?>
<svg width="84px" height="84px" viewBox="0 0 84 84" version="1.1" xmlns="http://www.w3.org/2000/svg" xmlns:xlink="http://www.w3.org/1999/xlink">
    <!-- Generator: Sketch 48.2 (47327) - http://www.bohemiancoding.com/sketch -->
    <title>rounded-plus-connected</title>
    <desc>Created with Sketch.</desc>
    <defs></defs>
    <g id="Artboard-4" stroke="none" stroke-width="1" fill="none" fill-rule="evenodd" transform="translate(-94.000000, -52.000000)" fill-opacity="0.1">
        <g id="rounded-plus-connected" transform="translate(94.000000, 52.000000)" fill="#FFFFFF" fill-rule="nonzero">
            <path d="M84,23 C79.583,23 76,19.416 76,15.002 L76,8 L68.998,8 C64.58,8 61,4.42 61,0 L23,0 C23,4.417 19.416,8 15.002,8 L8,8 L8,15.002 C8,19.42 4.42,23 0,23 L0,61 C4.417,61 8,64.584 8,68.998 L8,76 L15.002,76 C19.42,76 23,79.58 23,84 L61,84 C61,79.583 64.584,76 68.998,76 L76,76 L76,68.998 C76,64.58 79.58,61 84,61 L84,23 Z M59.05,83 L43,83 L43,66.95 C48.054,66.45 52,62.186 52,57.002 L52,52 L57.002,52 C62.182,52 66.448,48.053 66.952,43 L83,43 L83,59.05 C77.946,59.55 74,63.814 74,68.998 L74,74 L68.998,74 C63.818,74 59.552,77.947 59.048,83 L59.05,83 Z M24.95,83 L41,83 L41,66.95 C35.947,66.448 32,62.182 32,57.002 L32,52 L26.998,52 C21.814,52 17.551,48.054 17.048,43 L1,43 L1,59.05 C6.053,59.552 10,63.818 10,68.998 L10,74 L15.002,74 C20.186,74 24.449,77.946 24.952,83 L24.95,83 Z M24.95,1 L41,1 L41,17.05 C35.946,17.55 32,21.814 32,26.998 L32,32 L26.998,32 C21.818,32 17.552,35.947 17.048,41 L1,41 L1,24.95 C6.054,24.45 10,20.186 10,15.002 L10,10 L15.002,10 C20.182,10 24.448,6.053 24.952,1 L24.95,1 Z M59.05,1 L43,1 L43,17.05 C48.053,17.552 52,21.818 52,26.998 L52,32 L57.002,32 C62.186,32 66.449,35.946 66.952,41 L83,41 L83,24.95 C77.947,24.448 74,20.182 74,15.002 L74,10 L68.998,10 C63.814,10 59.551,6.054 59.048,1 L59.05,1 Z M50,50 L50,57.002 C50,61.42 46.42,65 42,65 C37.583,65 34,61.416 34,57.002 L34,50 L26.998,50 C22.58,50 19,46.42 19,42 C19,37.583 22.584,34 26.998,34 L34,34 L34,26.998 C34,22.58 37.58,19 42,19 C46.417,19 50,22.584 50,26.998 L50,34 L57.002,34 C61.42,34 65,37.58 65,42 C65,46.417 61.416,50 57.002,50 L50,50 Z" id="Shape"></path>
        </g>
    </g>
</svg>