<?xml version="1.0" encoding="UTF-8"?>
<svg width="67px" height="66px" viewBox="0 0 67 66" version="1.1" xmlns="http://www.w3.org/2000/svg" xmlns:xlink="http://www.w3.org/1999/xlink">
    <!-- Generator: Sketch 48.2 (47327) - http://www.bohemiancoding.com/sketch -->
    <title>star_4</title>
    <desc>Created with Sketch.</desc>
    <defs></defs>
    <g id="year-in-review-new" stroke="none" stroke-width="1" fill="none" fill-rule="evenodd" transform="translate(-727.000000, -2075.000000)">
        <g id="star_4" transform="translate(727.000000, 2074.000000)">
            <polygon id="Star-Copy-3" fill="#742745" points="33.3046756 60.8673106 27.5213794 66.5974055 24.0466664 59.2348738 16.6523378 62.6413978 15.9053098 54.5344594 7.79181392 55.2065355 9.86257351 47.3330067 2.0085177 45.1895726 6.64730068 38.4991172 0 33.7987027 6.64730068 29.0982883 2.0085177 22.4078328 9.86257351 20.2643988 7.79181392 12.3908699 15.9053098 13.0629461 16.6523378 4.95600761 24.0466664 8.36253164 27.5213794 1 33.3046756 6.73009484 39.0879718 1 42.5626847 8.36253164 49.9570134 4.95600761 50.7040413 13.0629461 58.8175372 12.3908699 56.7467777 20.2643988 64.6008335 22.4078328 59.9620505 29.0982883 66.6093512 33.7987027 59.9620505 38.4991172 64.6008335 45.1895726 56.7467777 47.3330067 58.8175372 55.2065355 50.7040413 54.5344594 49.9570134 62.6413978 42.5626847 59.2348738 39.0879718 66.5974055"></polygon>
            <text id="4." font-family="PlayfairDisplay-BoldItalic, Playfair Display" font-size="36" font-style="italic" font-weight="bold" fill="#F4F4F4">
                <tspan x="21.348" y="39">4.</tspan>
            </text>
        </g>
    </g>
</svg>