<?xml version="1.0" encoding="UTF-8"?>
<svg width="67px" height="66px" viewBox="0 0 67 66" version="1.1" xmlns="http://www.w3.org/2000/svg" xmlns:xlink="http://www.w3.org/1999/xlink">
    <!-- Generator: Sketch 48.2 (47327) - http://www.bohemiancoding.com/sketch -->
    <title>star_3</title>
    <desc>Created with Sketch.</desc>
    <defs></defs>
    <g id="year-in-review-new" stroke="none" stroke-width="1" fill="none" fill-rule="evenodd" transform="translate(-347.000000, -2075.000000)">
        <g id="star_3" transform="translate(347.000000, 2075.000000)">
            <polygon id="Star-Copy-2" fill="#44576C" points="33.3046756 59.8673106 27.5213794 65.5974055 24.0466664 58.2348738 16.6523378 61.6413978 15.9053098 53.5344594 7.79181392 54.2065355 9.86257351 46.3330067 2.0085177 44.1895726 6.64730068 37.4991172 0 32.7987027 6.64730068 28.0982883 2.0085177 21.4078328 9.86257351 19.2643988 7.79181392 11.3908699 15.9053098 12.0629461 16.6523378 3.95600761 24.0466664 7.36253164 27.5213794 -1.36557432e-14 33.3046756 5.73009484 39.0879718 -1.73194792e-14 42.5626847 7.36253164 49.9570134 3.95600761 50.7040413 12.0629461 58.8175372 11.3908699 56.7467777 19.2643988 64.6008335 21.4078328 59.9620505 28.0982883 66.6093512 32.7987027 59.9620505 37.4991172 64.6008335 44.1895726 56.7467777 46.3330067 58.8175372 54.2065355 50.7040413 53.5344594 49.9570134 61.6413978 42.5626847 58.2348738 39.0879718 65.5974055"></polygon>
            <path d="M33.332,20.848 C35.132009,20.848 36.5599947,21.1719968 37.616,21.82 C38.6720053,22.4680032 39.2,23.3439945 39.2,24.448 C39.2,25.9840077 38.3540085,27.3339942 36.662,28.498 C34.9699915,29.6620058 33.0440108,30.4959975 30.884,31 C32.9480103,31.0480002 34.6039938,31.4319964 35.852,32.152 C37.1000062,32.8720036 37.724,33.9639927 37.724,35.428 C37.724,37.3720097 36.72201,39.0939925 34.718,40.594 C32.71399,42.0940075 30.2540146,43.2639958 27.338,44.104 C24.4219854,44.9440042 21.6560131,45.3879998 19.04,45.436 L19.22,44.788 C21.2360101,44.6679994 23.2639898,44.206004 25.304,43.402 C27.3440102,42.597996 29.0419932,41.4640073 30.398,40 C31.7540068,38.5359927 32.432,36.8200098 32.432,34.852 C32.432,33.8919952 32.2400019,33.1180029 31.856,32.53 C31.4719981,31.9419971 30.9320035,31.6240002 30.236,31.576 C29.8519981,31.7440008 29.4740019,31.8879994 29.102,32.008 C28.7299981,32.1280006 28.4120013,32.188 28.148,32.188 C27.6199974,32.188 27.4159994,32.0080018 27.536,31.648 C27.6320005,31.1919977 28.2079947,30.964 29.264,30.964 L29.948,31 C31.2680066,30.4479972 32.3419959,29.6800049 33.17,28.696 C33.9980041,27.7119951 34.412,26.5840064 34.412,25.312 C34.412,24.303995 34.1180029,23.5120029 33.53,22.936 C32.9419971,22.3599971 32.1200053,22.072 31.064,22.072 C30.2239958,22.072 29.3840042,22.2819979 28.544,22.702 C27.7039958,23.1220021 27.0140027,23.6619967 26.474,24.322 C25.9339973,24.9820033 25.664,25.6599965 25.664,26.356 C25.664,26.956003 25.8259984,27.3939986 26.15,27.67 C26.4740016,27.9460014 27.0079963,28.084 27.752,28.084 C28.5680041,28.084 29.3119966,27.9040018 29.984,27.544 L30.38,28.084 C29.4439953,28.5880025 28.4840049,28.84 27.5,28.84 C26.7559963,28.84 26.1200026,28.6600018 25.592,28.3 C25.0639974,27.9399982 24.8,27.3040046 24.8,26.392 C24.8,25.5039956 25.1839962,24.6340043 25.952,23.782 C26.7200038,22.9299957 27.7579935,22.2280028 29.066,21.676 C30.3740065,21.1239972 31.7959923,20.848 33.332,20.848 Z M40.748,38.344 C40.748,37.3839952 41.0839966,36.5800032 41.756,35.932 C42.4280034,35.2839968 43.2559951,34.96 44.24,34.96 C45.0080038,34.96 45.6079978,35.1519981 46.04,35.536 C46.4720022,35.9200019 46.688,36.4599965 46.688,37.156 C46.688,38.0200043 46.3340035,38.7939966 45.626,39.478 C44.9179965,40.1620034 44.0960047,40.504 43.16,40.504 C42.3919962,40.504 41.7980021,40.3120019 41.378,39.928 C40.9579979,39.5439981 40.748,39.0160034 40.748,38.344 Z" id="3." fill="#F4F4F4"></path>
        </g>
    </g>
</svg>