<?xml version="1.0" encoding="UTF-8"?>
<svg width="67px" height="66px" viewBox="0 0 67 66" version="1.1" xmlns="http://www.w3.org/2000/svg" xmlns:xlink="http://www.w3.org/1999/xlink">
    <!-- Generator: Sketch 48.2 (47327) - http://www.bohemiancoding.com/sketch -->
    <title>star_1</title>
    <desc>Created with Sketch.</desc>
    <defs></defs>
    <g id="year-in-review-new" stroke="none" stroke-width="1" fill="none" fill-rule="evenodd" transform="translate(-347.000000, -1830.000000)">
        <g id="star_1" transform="translate(347.000000, 1830.000000)">
            <polygon id="Star" fill="#634B80" points="33.3046756 59.8673106 27.5213794 65.5974055 24.0466664 58.2348738 16.6523378 61.6413978 15.9053098 53.5344594 7.79181392 54.2065355 9.86257351 46.3330067 2.0085177 44.1895726 6.64730068 37.4991172 0 32.7987027 6.64730068 28.0982883 2.0085177 21.4078328 9.86257351 19.2643988 7.79181392 11.3908699 15.9053098 12.0629461 16.6523378 3.95600761 24.0466664 7.36253164 27.5213794 -1.36557432e-14 33.3046756 5.73009484 39.0879718 -1.73194792e-14 42.5626847 7.36253164 49.9570134 3.95600761 50.7040413 12.0629461 58.8175372 11.3908699 56.7467777 19.2643988 64.6008335 21.4078328 59.9620505 28.0982883 66.6093512 32.7987027 59.9620505 37.4991172 64.6008335 44.1895726 56.7467777 46.3330067 58.8175372 54.2065355 50.7040413 53.5344594 49.9570134 61.6413978 42.5626847 58.2348738 39.0879718 65.5974055"></polygon>
            <path d="M33.284,42 L28.208,42 L32.708,26.808 C31.5559942,27.2880024 29.9600102,27.7919974 27.92,28.32 L28.028,27.564 C30.3560116,26.963997 32.2639926,26.3040036 33.752,25.584 C35.2400074,24.8639964 36.7279926,24.000005 38.216,22.992 L38.936,22.992 L33.284,42 Z M39.62,40.344 C39.62,39.3839952 39.9559966,38.5800032 40.628,37.932 C41.3000034,37.2839968 42.1279951,36.96 43.112,36.96 C43.8800038,36.96 44.4799978,37.1519981 44.912,37.536 C45.3440022,37.9200019 45.56,38.4599965 45.56,39.156 C45.56,40.0200043 45.2060035,40.7939966 44.498,41.478 C43.7899965,42.1620034 42.9680047,42.504 42.032,42.504 C41.2639962,42.504 40.6700021,42.3120019 40.25,41.928 C39.8299979,41.5439981 39.62,41.0160034 39.62,40.344 Z" id="1." fill="#F4F4F4"></path>
        </g>
    </g>
</svg>