<?xml version="1.0" encoding="UTF-8"?>
<svg width="67px" height="66px" viewBox="0 0 67 66" version="1.1" xmlns="http://www.w3.org/2000/svg" xmlns:xlink="http://www.w3.org/1999/xlink">
    <!-- Generator: Sketch 48.2 (47327) - http://www.bohemiancoding.com/sketch -->
    <title>star_2</title>
    <desc>Created with Sketch.</desc>
    <defs></defs>
    <g id="year-in-review-new" stroke="none" stroke-width="1" fill="none" fill-rule="evenodd" transform="translate(-727.000000, -1830.000000)">
        <g id="star_2" transform="translate(727.000000, 1830.000000)">
            <polygon id="Star-Copy" fill="#4FA173" points="33.3046756 59.8673106 27.5213794 65.5974055 24.0466664 58.2348738 16.6523378 61.6413978 15.9053098 53.5344594 7.79181392 54.2065355 9.86257351 46.3330067 2.0085177 44.1895726 6.64730068 37.4991172 0 32.7987027 6.64730068 28.0982883 2.0085177 21.4078328 9.86257351 19.2643988 7.79181392 11.3908699 15.9053098 12.0629461 16.6523378 3.95600761 24.0466664 7.36253164 27.5213794 -1.36557432e-14 33.3046756 5.73009484 39.0879718 -1.73194792e-14 42.5626847 7.36253164 49.9570134 3.95600761 50.7040413 12.0629461 58.8175372 11.3908699 56.7467777 19.2643988 64.6008335 21.4078328 59.9620505 28.0982883 66.6093512 32.7987027 59.9620505 37.4991172 64.6008335 44.1895726 56.7467777 46.3330067 58.8175372 54.2065355 50.7040413 53.5344594 49.9570134 61.6413978 42.5626847 58.2348738 39.0879718 65.5974055"></polygon>
            <path d="M33.796,22.884 C35.5720089,22.884 36.9819948,23.2199966 38.026,23.892 C39.0700052,24.5640034 39.592,25.4879941 39.592,26.664 C39.592,27.7200053 39.1600043,28.7579949 38.296,29.778 C37.4319957,30.7980051 36.4240058,31.709996 35.272,32.514 C34.1199942,33.318004 32.6320091,34.2599946 30.808,35.34 C30.5199986,35.5080008 30.0280035,35.8079978 29.332,36.24 C28.6359965,36.6720022 28.0720022,37.0439984 27.64,37.356 C28.240003,37.356 29.2119933,37.5119984 30.556,37.824 C31.1800031,37.9680007 31.8219967,38.0939995 32.482,38.202 C33.1420033,38.3100005 33.7359974,38.364 34.264,38.364 C35.2000047,38.364 35.9439972,38.2140015 36.496,37.914 C37.0480028,37.6139985 37.324,37.1880028 37.324,36.636 C37.324,35.9159964 36.8920043,35.3280023 36.028,34.872 L36.424,34.404 C37.1200035,34.7640018 37.6239984,35.1899975 37.936,35.682 C38.2480016,36.1740025 38.404,36.7679965 38.404,37.464 C38.404,38.7600065 37.9360047,39.8759953 37,40.812 C36.0639953,41.7480047 34.6720092,42.216 32.824,42.216 C32.2959974,42.216 31.732003,42.1620005 31.132,42.054 C30.531997,41.9459995 29.9440029,41.8320006 29.368,41.712 C28.5519959,41.519999 27.8380031,41.3760005 27.226,41.28 C26.6139969,41.1839995 25.9600035,41.136 25.264,41.136 C24.5679965,41.136 23.9440028,41.2019993 23.392,41.334 C22.8399972,41.4660007 22.1920037,41.6879984 21.448,42 L21.628,41.244 C22.4440041,40.5959968 23.1159974,40.0920018 23.644,39.732 C25.6600101,38.2439926 27.3999927,36.8820062 28.864,35.646 C30.3280073,34.4099938 31.6359942,33.0060079 32.788,31.434 C33.9400058,29.8619921 34.516,28.3200076 34.516,26.808 C34.516,25.8719953 34.2760024,25.1520025 33.796,24.648 C33.3159976,24.1439975 32.6440043,23.892 31.78,23.892 C30.8439953,23.892 29.8960048,24.1679972 28.936,24.72 C27.9759952,25.2720028 27.1780032,25.9799957 26.542,26.844 C25.9059968,27.7080043 25.588,28.5839956 25.588,29.472 C25.588,30.072003 25.7499984,30.5099986 26.074,30.786 C26.3980016,31.0620014 26.9319963,31.2 27.676,31.2 C28.3000031,31.2 28.8579975,31.0860011 29.35,30.858 C29.8420025,30.6299989 30.387997,30.2520026 30.988,29.724 L31.42,30.228 C30.7959969,30.828003 30.1360035,31.2659986 29.44,31.542 C28.7439965,31.8180014 28.0720032,31.956 27.424,31.956 C26.6799963,31.956 26.0440026,31.7760018 25.516,31.416 C24.9879974,31.0559982 24.724,30.4200046 24.724,29.508 C24.724,28.4519947 25.119996,27.4080052 25.912,26.376 C26.704004,25.3439948 27.7899931,24.5040032 29.17,23.856 C30.5500069,23.2079968 32.0919915,22.884 33.796,22.884 Z M41.572,40.344 C41.572,39.3839952 41.9079966,38.5800032 42.58,37.932 C43.2520034,37.2839968 44.0799951,36.96 45.064,36.96 C45.8320038,36.96 46.4319978,37.1519981 46.864,37.536 C47.2960022,37.9200019 47.512,38.4599965 47.512,39.156 C47.512,40.0200043 47.1580035,40.7939966 46.45,41.478 C45.7419965,42.1620034 44.9200047,42.504 43.984,42.504 C43.2159962,42.504 42.6220021,42.3120019 42.202,41.928 C41.7819979,41.5439981 41.572,41.0160034 41.572,40.344 Z" id="2." fill="#F4F4F4"></path>
        </g>
    </g>
</svg>