<?xml version="1.0" encoding="UTF-8"?>
<svg width="67px" height="66px" viewBox="0 0 67 66" version="1.1" xmlns="http://www.w3.org/2000/svg" xmlns:xlink="http://www.w3.org/1999/xlink">
    <!-- Generator: Sketch 48.2 (47327) - http://www.bohemiancoding.com/sketch -->
    <title>star_4</title>
    <desc>Created with Sketch.</desc>
    <defs></defs>
    <g id="year-in-review-new" stroke="none" stroke-width="1" fill="none" fill-rule="evenodd" transform="translate(-727.000000, -2075.000000)">
        <g id="star_4" transform="translate(727.000000, 2075.000000)">
            <polygon id="Star-Copy-3" fill="#742745" points="33.3046756 59.8673106 27.5213794 65.5974055 24.0466664 58.2348738 16.6523378 61.6413978 15.9053098 53.5344594 7.79181392 54.2065355 9.86257351 46.3330067 2.0085177 44.1895726 6.64730068 37.4991172 0 32.7987027 6.64730068 28.0982883 2.0085177 21.4078328 9.86257351 19.2643988 7.79181392 11.3908699 15.9053098 12.0629461 16.6523378 3.95600761 24.0466664 7.36253164 27.5213794 -1.36557432e-14 33.3046756 5.73009484 39.0879718 -1.73194792e-14 42.5626847 7.36253164 49.9570134 3.95600761 50.7040413 12.0629461 58.8175372 11.3908699 56.7467777 19.2643988 64.6008335 21.4078328 59.9620505 28.0982883 66.6093512 32.7987027 59.9620505 37.4991172 64.6008335 44.1895726 56.7467777 46.3330067 58.8175372 54.2065355 50.7040413 53.5344594 49.9570134 61.6413978 42.5626847 58.2348738 39.0879718 65.5974055"></polygon>
            <path d="M37.656,36.344 L32.976,36.344 L31.176,43.076 L26.1,43.076 L27.9,36.344 L19.26,36.344 L19.476,35.588 L36.756,18.884 L37.692,18.884 L33.336,35.084 L38.016,35.084 L37.656,36.344 Z M28.26,35.084 L30.816,25.58 L21.024,35.084 L28.26,35.084 Z M40.572,36.344 C40.572,35.3839952 40.9079966,34.5800032 41.58,33.932 C42.2520034,33.2839968 43.0799951,32.96 44.064,32.96 C44.8320038,32.96 45.4319978,33.1519981 45.864,33.536 C46.2960022,33.9200019 46.512,34.4599965 46.512,35.156 C46.512,36.0200043 46.1580035,36.7939966 45.45,37.478 C44.7419965,38.1620034 43.9200047,38.504 42.984,38.504 C42.2159962,38.504 41.6220021,38.3120019 41.202,37.928 C40.7819979,37.5439981 40.572,37.0160034 40.572,36.344 Z" id="4." fill="#F4F4F4"></path>
        </g>
    </g>
</svg>