<?xml version="1.0" encoding="UTF-8"?>
<svg width="66px" height="67px" viewBox="0 0 66 67" version="1.1" xmlns="http://www.w3.org/2000/svg" xmlns:xlink="http://www.w3.org/1999/xlink">
    <!-- Generator: Sketch 48.2 (47327) - http://www.bohemiancoding.com/sketch -->
    <title>veohrc logo copy</title>
    <desc>Created with Sketch.</desc>
    <defs></defs>
    <g id="year-in-review-new" stroke="none" stroke-width="1" fill="none" fill-rule="evenodd" transform="translate(-530.000000, -12328.000000)">
        <g id="veohrc-logo-copy" transform="translate(530.000000, 12327.000000)">
            <polygon id="Star" fill="#D5B3C0" points="33.0338 63.4331768 26.5985907 67.6066916 22.2039752 61.2145458 14.7078744 62.5340497 13.0228931 54.896419 5.60711414 53.1610295 6.88829016 45.440674 0.681818182 40.9145884 4.73410408 34.2868623 0.681818182 27.6591362 6.88829016 23.1330506 5.60711414 15.4126951 13.0228931 13.6773056 14.7078744 6.03967494 22.2039752 7.35917885 26.5985907 0.967032967 33.0338 5.14054776 39.4690092 0.967032967 43.8636247 7.35917885 51.3597255 6.03967494 53.0447068 13.6773056 60.4604858 15.4126951 59.1793097 23.1330506 65.3857817 27.6591362 61.3334958 34.2868623 65.3857817 40.9145884 59.1793097 45.440674 60.4604858 53.1610295 53.0447068 54.896419 51.3597255 62.5340497 43.8636247 61.2145458 39.4690092 67.6066916"></polygon>
            <g id="veohrc_logo" transform="translate(16.340909, 14.142857)" fill="#FFFFFF">
                <path d="M17.3261818,38.3296703 C21.7369629,38.3288371 26.2423154,36.3148629 29.6059939,33.0235108 C36.3359069,26.442473 36.3359069,15.7701596 29.6085499,9.18995509 C29.5259063,9.10912948 29.4372988,9.03163688 29.3529512,8.95414429 C35.5818908,15.2893722 35.5052112,25.3625762 29.1212084,31.6044797 C25.8819213,34.7725103 21.5665637,36.4356847 17.3261818,36.4356847 C13.0798359,36.4356847 8.77129435,34.7725103 5.53200721,31.6044797 C-0.85114357,25.3625762 -0.926971175,15.2893722 5.30111641,8.95414429 C5.21591685,9.03163688 5.12816131,9.10912948 5.04466574,9.18995509 C-1.68183925,15.7701596 -1.68183925,26.442473 5.04807373,33.0235108 C8.41260421,36.3148629 12.9171048,38.3296703 17.3261818,38.3296703" id="Fill-27"></path>
                <path d="M17.3253298,33.0668399 C13.7733603,33.0668399 10.2784745,31.3503373 7.76764357,28.8964052 C2.6514102,23.8910502 2.9001929,15.6676694 7.48222506,10.8764606 C7.39020953,10.9614525 7.29137805,11.0331123 7.20191851,11.1214372 C2.03030543,16.1792871 1.6912112,25.0751037 7.18402661,30.4454238 C9.85332871,33.0560076 13.3413986,34.9074974 17.3261818,34.9074974 C21.3109651,34.9074974 24.780291,33.0351763 27.4478891,30.426259 C32.9432605,25.0534391 32.6237622,16.1792871 27.4530011,11.1214372 C27.3635416,11.0331123 27.2638581,10.9614525 27.1726946,10.8764606 C31.7538747,15.6676694 31.9813575,23.8693856 26.8659762,28.8755738 C24.3542932,31.3311725 20.8772993,33.0668399 17.3253298,33.0668399" id="Fill-29"></path>
                <path d="M17.3261818,31.510322 C20.4930493,31.510322 22.7465776,30.442924 24.8535626,28.3831209 C29.2532677,24.077699 29.4926785,17.3325103 25.3817999,13.3128944 C25.2931924,13.2270693 25.1943609,13.1520764 25.1023453,13.0695843 C28.6483509,16.8242255 28.3578204,22.8903125 24.3645172,26.7966058 C22.3947034,28.7239216 20.1156153,29.7821538 17.3261818,29.7821538 C14.5393043,29.7821538 12.2602162,28.7239216 10.2895504,26.7966058 C6.29539523,22.8903125 6.00401275,16.8242255 9.55087029,13.0695843 C9.45970676,13.1520764 9.36172727,13.2270693 9.27226774,13.3128944 C5.16138914,17.3325103 5.39994789,24.077699 9.79965299,28.3831209 C11.90749,30.442924 14.1610183,31.510322 17.3261818,31.510322" id="Fill-30"></path>
                <path d="M17.3261818,28.2498003 C19.6495737,28.2498003 21.1090421,27.3998815 22.5744745,25.9650186 C25.6220626,22.9861366 25.7847938,18.3140831 22.9408326,15.5326823 C22.856485,15.4493569 22.7653215,15.3785303 22.67927,15.3027043 C25.0154418,17.844128 24.8007389,21.8970741 22.1254728,24.517657 C20.7886918,25.8233655 19.2976996,26.6274553 17.3261818,26.6274553 C15.3572201,26.6274553 13.8662278,25.8233655 12.5285948,24.517657 C9.85332871,21.8970741 9.63862583,17.844128 11.9739457,15.3027043 C11.8887461,15.3785303 11.7984346,15.4493569 11.713235,15.5326823 C8.86927384,18.3140831 9.03285698,22.9861366 12.0795931,25.9650186 C13.5441735,27.3998815 15.0044939,28.2498003 17.3261818,28.2498003" id="Fill-31"></path>
                <path d="M17.3261818,23.6369078 C18.2744529,23.6369078 19.2244279,23.223614 19.9673681,22.4961835 C21.3995726,21.0938175 21.512036,18.9356904 20.2766425,17.5633215 C20.3839939,17.6499799 20.4879374,17.7391381 20.5859169,17.834129 C22.2166364,19.4281433 21.8272744,22.4003593 20.3780299,23.8185571 C19.5328503,24.642645 18.5641314,25.0842695 17.3261818,25.0842695 C16.0899363,25.0842695 15.1212173,24.642645 14.2768897,23.8185571 C12.8276452,22.4003593 12.4374313,19.4281433 14.0672988,17.834129 C14.1661303,17.7391381 14.2709257,17.6499799 14.3774252,17.5633215 C13.1428836,18.9356904 13.253643,21.0938175 14.6875516,22.4961835 C15.4304917,23.223614 16.3787627,23.6369078 17.3261818,23.6369078" id="Fill-32"></path>
                <path d="M15.6860904,8.68333684 C15.6843864,7.79592164 16.4179545,7.07849021 17.3270338,7.07849021 C18.2335571,7.07849021 18.9688293,7.79592164 18.9688293,8.68333684 C18.9688293,9.56908552 18.2335571,10.2906832 17.3261818,10.2906832 C16.4213625,10.2906832 15.6860904,9.56908552 15.6860904,8.68333684" id="Fill-55"></path>
                <path d="M15.0462417,2.98638127 C15.0453897,1.75316579 16.0643764,0.756594362 17.3278858,0.756594362 C18.5862833,0.756594362 19.6069739,1.75316579 19.6069739,2.98638127 C19.6069739,4.21543048 18.5862833,5.21783469 17.3261818,5.21783469 C16.0660804,5.21783469 15.0462417,4.21543048 15.0462417,2.98638127" id="Fill-56"></path>
                <path d="M16.1597999,13.1687415 C16.1580959,12.5388017 16.6812212,12.0280172 17.3261818,12.0280172 C17.9702905,12.0280172 18.4959717,12.5388017 18.4959717,13.1687415 C18.4959717,13.8003478 17.9702905,14.3119656 17.3261818,14.3119656 C16.6829252,14.3119656 16.1597999,13.8003478 16.1597999,13.1687415" id="Fill-57"></path>
            </g>
        </g>
    </g>
</svg>