<?xml version="1.0" encoding="UTF-8"?>
<svg width="266px" height="72px" viewBox="0 0 266 72" version="1.1" xmlns="http://www.w3.org/2000/svg" xmlns:xlink="http://www.w3.org/1999/xlink">
    <!-- Generator: Sketch 48.2 (47327) - http://www.bohemiancoding.com/sketch -->
    <title>veohrc logo</title>
    <desc>Created with Sketch.</desc>
    <defs></defs>
    <g id="year-in-review-new" stroke="none" stroke-width="1" fill="none" fill-rule="evenodd" transform="translate(-437.000000, -13698.000000)">
        <g id="veohrc-logo" transform="translate(437.000000, 13697.000000)" fill="#44576C">
            <path d="M80.975028,44.4085913 L79.1976699,44.4085913 L75.8532328,33.6652522 L78.0327911,33.6652522 L79.8418579,40.5673073 C80.0054083,41.1930077 80.135581,41.9251416 80.135581,41.9251416 L80.1639519,41.9251416 C80.1639519,41.9251416 80.2941246,41.1930077 80.457675,40.5673073 L82.3017883,33.6652522 L84.2560477,33.6652522 L80.975028,44.4085913" id="Fill-1"></path>
            <path d="M86.2699792,34.5567349 C85.5905521,34.5567349 85.0401782,34.1365135 85.0401782,33.6212996 C85.0401782,33.0899852 85.5905521,32.6713739 86.2699792,32.6713739 C86.9683846,32.6713739 87.5016779,33.0899852 87.5016779,33.6212996 C87.5016779,34.1365135 86.9683846,34.5567349 86.2699792,34.5567349 Z M85.1483552,44.4085913 L87.3916031,44.4085913 L87.3916031,36.0057741 L85.1483552,36.0057741 L85.1483552,44.4085913 Z" id="Fill-2"></path>
            <path d="M92.2923162,44.5621043 C90.2528714,44.5621043 88.7626395,42.9457867 88.7626395,40.1552903 C88.7626395,37.3485984 90.3230201,35.7954435 92.3077147,35.7954435 C93.3992967,35.7954435 94.0477443,36.1080179 94.3796674,36.3768644 L93.9485096,37.4587283 C93.6987118,37.2692402 93.3342808,37.0991867 92.754271,37.0991867 C91.3803832,37.0991867 90.8003734,38.2733654 90.8003734,40.1228992 C90.8003734,41.9902482 91.479618,43.182242 92.721763,43.182242 C93.267554,43.182242 93.6490945,43.025145 93.9314002,42.8048852 L94.3950659,43.9806835 C94.0306349,44.2932579 93.3684997,44.5621043 92.2923162,44.5621043" id="Fill-3"></path>
            <path d="M98.5361591,44.5003826 C96.7447907,44.5003826 96.0407898,43.392799 96.0407898,42.219115 L96.0407898,37.2116117 L95.0266104,37.2116117 L95.0266104,35.9927861 L96.0407898,35.9927861 L96.0407898,34.1355279 L98.0952873,33.605113 L98.0952873,35.9927861 L99.5782197,35.9927861 L99.5782197,37.2116117 L98.0952873,37.2116117 L98.0952873,42.1288316 C98.0952873,42.7849984 98.3845549,43.2202932 99.0920409,43.2202932 C99.2784966,43.2202932 99.4109324,43.1896614 99.5782197,43.1412953 L99.5782197,44.3294891 C99.3952492,44.4068748 99.0240804,44.5003826 98.5361591,44.5003826" id="Fill-4"></path>
            <path d="M103.9335,44.5621043 C101.476585,44.5621043 100.287647,42.6785598 100.287647,40.1860619 C100.287647,37.6627924 101.476585,35.7954435 103.9335,35.7954435 C106.410595,35.7954435 107.581035,37.6627924 107.581035,40.1860619 C107.581035,42.6785598 106.39546,44.5621043 103.9335,44.5621043 M103.9335,37.0036328 C102.532672,37.0036328 102.25856,38.5567878 102.25856,40.1714859 C102.25856,41.7699885 102.569668,43.2599807 103.9335,43.2599807 C105.352826,43.2599807 105.611803,41.7699885 105.611803,40.1714859 C105.611803,38.5567878 105.352826,37.0036328 103.9335,37.0036328" id="Fill-5"></path>
            <path d="M112.870498,37.2081456 C112.172854,36.9877899 111.415761,37.0201952 110.940173,37.2697156 L110.940173,44.4085913 L108.876964,44.4085913 L108.876964,36.407736 C109.824641,35.9832273 110.975143,35.7482893 113.274398,35.8130997 L112.870498,37.2081456" id="Fill-6"></path>
            <path d="M115.305813,34.5567349 C114.628284,34.5567349 114.076012,34.1365135 114.076012,33.6212996 C114.076012,33.0899852 114.628284,32.6713739 115.305813,32.6713739 C116.004218,32.6713739 116.537512,33.0899852 116.537512,33.6212996 C116.537512,34.1365135 116.004218,34.5567349 115.305813,34.5567349 Z M114.186087,44.4085913 L116.429335,44.4085913 L116.429335,36.0057741 L114.186087,36.0057741 L114.186087,44.4085913 Z" id="Fill-7"></path>
            <path d="M121.305375,44.5621043 C118.901909,44.5621043 117.709465,43.6211419 117.709465,41.9902482 C117.709465,39.7633576 119.949097,39.1203936 122.627873,38.8709818 L122.627873,38.4126472 C122.627873,37.3162073 121.910042,37.0198284 120.878055,37.0198284 C120.028481,37.0198284 119.210998,37.2854357 118.673892,37.536467 L118.21448,36.4400271 C118.787056,36.1744198 119.849445,35.7954435 121.239504,35.7954435 C123.055193,35.7954435 124.494233,36.5339614 124.494233,38.7138848 L124.494233,43.9482923 C123.791603,44.3094535 122.678543,44.5621043 121.305375,44.5621043 M122.627873,39.7795532 C120.74969,39.9981933 119.589337,40.3901261 119.589337,41.9270855 C119.589337,43.025145 120.275077,43.4948164 121.43374,43.4948164 C121.893152,43.4948164 122.335673,43.3992626 122.627873,43.2599807 L122.627873,39.7795532" id="Fill-8"></path>
            <path d="M131.040597,44.4085913 L131.040597,38.4137367 C131.040597,37.7267588 130.713393,37.0025155 129.458549,37.0025155 C128.805827,37.0025155 128.460071,37.0997294 128.085641,37.2390693 L128.085641,44.4085913 L126.093745,44.4085913 L126.093745,36.4078908 C126.928621,36.0319972 128.053596,35.7954435 129.539507,35.7954435 C132.167258,35.7954435 133.035867,37.0203381 133.035867,38.3845726 L133.035867,44.4085913 L131.040597,44.4085913" id="Fill-9"></path>
            <polyline id="Fill-10" points="138.910964 44.4085913 138.910964 33.6652522 144.465508 33.6652522 144.465508 34.9940591 141.019396 34.9940591 141.019396 38.2418953 144.088697 38.2418953 144.088697 39.5529632 141.019396 39.5529632 141.019396 43.0813971 144.465508 43.0813971 144.465508 44.4085913 138.910964 44.4085913"></polyline>
            <path d="M150.480798,47.702 L150.480798,44.1334133 C150.075061,44.3362288 149.519488,44.476268 148.803978,44.476268 C146.71637,44.476268 145.300501,42.8891564 145.300501,40.3620111 C145.300501,37.7608221 146.568217,35.7954435 149.551476,35.7954435 C150.889902,35.7954435 151.86468,36.075522 152.455607,36.4038899 L152.455607,47.702 L150.480798,47.702 Z M150.480798,37.0912091 C150.218163,36.964047 149.879769,36.9173672 149.45383,36.9173672 C147.955466,36.9173672 147.270259,38.1326505 147.270259,40.2380683 C147.270259,42.2002276 147.889807,43.3221514 149.339348,43.3221514 C149.812427,43.3221514 150.204695,43.214305 150.480798,43.0581693 L150.480798,37.0912091 Z" id="Fill-11"></path>
            <path d="M157.469755,44.5763478 C155.113892,44.5763478 154.056709,43.5912861 154.056709,41.7199927 L154.056709,35.9489565 L156.047793,35.9489565 L156.047793,41.8334044 C156.047793,42.6305268 156.507144,43.2591517 157.535618,43.2591517 C158.109807,43.2591517 158.516806,43.165182 158.861319,42.9772426 L158.861319,35.9489565 L160.855782,35.9489565 L160.855782,43.900738 C160.11778,44.2798572 159.008244,44.5763478 157.469755,44.5763478" id="Fill-12"></path>
            <path d="M165.652255,44.5621043 C163.248788,44.5621043 162.056345,43.6211419 162.056345,41.9902482 C162.056345,39.7633576 164.295977,39.1203936 166.97982,38.8709818 L166.97982,38.4126472 C166.97982,37.3162073 166.256922,37.0198284 165.228312,37.0198284 C164.378738,37.0198284 163.557878,37.2854357 163.02246,37.536467 L162.563049,36.4400271 C163.135624,36.1744198 164.198014,35.7954435 165.586383,35.7954435 C167.403762,35.7954435 168.841113,36.5339614 168.841113,38.7138848 L168.841113,43.9482923 C168.138483,44.3094535 167.025423,44.5621043 165.652255,44.5621043 M166.97982,39.7795532 C165.09488,39.9981933 163.936217,40.3901261 163.936217,41.9270855 C163.936217,43.025145 164.623645,43.4948164 165.785687,43.4948164 C166.241721,43.4948164 166.682553,43.3992626 166.97982,43.2599807 L166.97982,39.7795532" id="Fill-13"></path>
            <polygon id="Fill-14" points="170.518507 44.4085913 172.797221 44.4085913 172.797221 32.1791826 170.518507 32.1791826"></polygon>
            <path d="M182.598318,44.5621043 C179.6085,44.5621043 178.41324,42.0944558 178.41324,39.0368926 C178.41324,35.9938354 179.6085,33.5149043 182.598318,33.5149043 C185.589806,33.5149043 186.768372,35.9938354 186.768372,39.0368926 C186.768372,42.0944558 185.589806,44.5621043 182.598318,44.5621043 M182.598318,34.8236768 C180.885558,34.8236768 180.498267,36.9609087 180.498267,38.9756446 C180.498267,40.9726508 180.835477,43.092153 182.598318,43.092153 C184.361159,43.092153 184.685014,40.9726508 184.685014,38.9756446 C184.685014,36.9609087 184.311078,34.8236768 182.598318,34.8236768" id="Fill-15"></path>
            <path d="M191.4161,44.4617812 C190.91104,44.4617812 190.389145,44.399005 190.094527,44.2879394 L190.094527,47.702 L188.12311,47.702 L188.12311,36.4038899 C188.789789,36.0610352 189.769605,35.7954435 191.170304,35.7954435 C193.72759,35.7954435 195.279807,37.3712876 195.279807,40.0513493 C195.279807,42.7925776 193.714121,44.4617812 191.4161,44.4617812 M191.119798,36.9350733 C190.68208,36.9350733 190.37231,36.9962399 190.094527,37.1056959 L190.094527,43.1837218 C190.323487,43.2754716 190.616422,43.3221514 190.975014,43.3221514 C192.540699,43.3221514 193.306707,42.1535479 193.306707,40.1125159 C193.306707,38.1020672 192.734306,36.9350733 191.119798,36.9350733" id="Fill-16"></path>
            <path d="M199.864,44.4617812 C199.358934,44.4617812 198.837032,44.399005 198.54241,44.2879394 L198.54241,47.702 L196.570968,47.702 L196.570968,36.4038899 C197.239339,36.0610352 198.2158,35.7954435 199.618201,35.7954435 C202.180571,35.7954435 203.726074,37.3712876 203.726074,40.0513493 C203.726074,42.7925776 202.160369,44.4617812 199.864,44.4617812 M199.571062,36.9350733 C199.128287,36.9350733 198.818513,36.9962399 198.54241,37.1056959 L198.54241,43.1837218 C198.76969,43.2754716 199.064312,43.3221514 199.422909,43.3221514 C200.988615,43.3221514 201.754632,42.1535479 201.754632,40.1125159 C201.754632,38.1020672 201.183907,36.9350733 199.571062,36.9350733" id="Fill-17"></path>
            <path d="M208.359644,44.5621043 C205.901079,44.5621043 204.710474,42.6785598 204.710474,40.1860619 C204.710474,37.6627924 205.901079,35.7954435 208.359644,35.7954435 C210.833345,35.7954435 212.005451,37.6627924 212.005451,40.1860619 C212.005451,42.6785598 210.816528,44.5621043 208.359644,44.5621043 M208.359644,37.0036328 C206.957152,37.0036328 206.679681,38.5567878 206.679681,40.1714859 C206.679681,41.7699885 206.990785,43.2599807 208.359644,43.2599807 C209.773908,43.2599807 210.034563,41.7699885 210.034563,40.1714859 C210.034563,38.5567878 209.773908,37.0036328 208.359644,37.0036328" id="Fill-18"></path>
            <path d="M217.289714,37.2081456 C216.599138,36.9877899 215.836882,37.0201952 215.363095,37.2697156 L215.363095,44.4085913 L213.296612,44.4085913 L213.296612,36.407736 C214.244187,35.9832273 215.396312,35.7482893 217.698814,35.8130997 L217.289714,37.2081456" id="Fill-19"></path>
            <path d="M221.591449,44.5003826 C219.805488,44.5003826 219.094589,43.392799 219.094589,42.219115 L219.094589,37.2116117 L218.083996,37.2116117 L218.083996,35.9927861 L219.094589,35.9927861 L219.094589,34.1355279 L221.154106,33.605113 L221.154106,35.9927861 L222.640374,35.9927861 L222.640374,37.2116117 L221.154106,37.2116117 L221.154106,42.1288316 C221.154106,42.7849984 221.438117,43.2202932 222.149017,43.2202932 C222.333711,43.2202932 222.469619,43.1896614 222.640374,43.1412953 L222.640374,44.3294891 C222.453937,44.4068748 222.084548,44.5003826 221.591449,44.5003826" id="Fill-20"></path>
            <path d="M227.225523,44.5763478 C224.868005,44.5763478 223.809148,43.5912861 223.809148,41.7199927 L223.809148,35.9489565 L225.801893,35.9489565 L225.801893,41.8334044 C225.801893,42.6305268 226.259548,43.2591517 227.289696,43.2591517 C227.865565,43.2591517 228.272558,43.165182 228.613689,42.9772426 L228.613689,35.9489565 L230.609811,35.9489565 L230.609811,43.900738 C229.873508,44.2798572 228.7623,44.5763478 227.225523,44.5763478" id="Fill-21"></path>
            <path d="M237.156175,44.4085913 L237.156175,38.4137367 C237.156175,37.7267588 236.830657,37.0025155 235.57244,37.0025155 C234.921405,37.0025155 234.575648,37.0997294 234.202906,37.2390693 L234.202906,44.4085913 L232.209322,44.4085913 L232.209322,36.4078908 C233.042512,36.0319972 234.167487,35.7954435 235.653398,35.7954435 C238.286209,35.7954435 239.151445,37.0203381 239.151445,38.3845726 L239.151445,44.4085913 L237.156175,44.4085913" id="Fill-22"></path>
            <path d="M241.950712,34.5567349 C241.269302,34.5567349 240.720757,34.1365135 240.720757,33.6212996 C240.720757,33.0899852 241.269302,32.6713739 241.950712,32.6713739 C242.647307,32.6713739 243.180667,33.0899852 243.180667,33.6212996 C243.180667,34.1365135 242.647307,34.5567349 241.950712,34.5567349 Z M240.828948,44.4085913 L243.072477,44.4085913 L243.072477,36.0057741 L240.828948,36.0057741 L240.828948,44.4085913 Z" id="Fill-23"></path>
            <path d="M247.812508,44.5003826 C246.024744,44.5003826 245.317306,43.392799 245.317306,42.219115 L245.317306,37.2116117 L244.304937,37.2116117 L244.304937,35.9927861 L245.317306,35.9927861 L245.317306,34.1355279 L247.373408,33.605113 L247.373408,35.9927861 L248.859725,35.9927861 L248.859725,37.2116117 L247.373408,37.2116117 L247.373408,42.1288316 C247.373408,42.7849984 247.660914,43.2202932 248.370094,43.2202932 C248.556538,43.2202932 248.690707,43.1896614 248.859725,43.1412953 L248.859725,44.3294891 C248.675025,44.4068748 248.303881,44.5003826 247.812508,44.5003826" id="Fill-24"></path>
            <path d="M252.909361,47.702 L250.813132,47.702 L252.244744,44.3515776 L249.352989,35.9489565 L251.462645,35.9489565 L252.974816,41.3907767 C253.154397,42.0428291 253.154397,42.5886211 253.154397,42.5886211 L253.186285,42.5886211 C253.186285,42.5886211 253.234957,42.0428291 253.429642,41.3907767 L255.054262,35.9489565 L256.905455,35.9489565 L252.909361,47.702" id="Fill-25"></path>
            <path d="M83.8699817,55.0809789 L83.8699817,60.7915162 C83.2604253,61.1654492 82.1658813,61.416887 80.6378381,61.416887 C78.0003026,61.416887 76.3443688,60.2918644 76.3443688,58.2932569 C76.3443688,56.7024298 77.5169759,55.68862 79.0134617,55.2373216 L79.0134617,55.2034742 C77.7578088,54.7989174 77.0535802,54.0043097 77.0535802,52.8808989 C77.0535802,51.4286849 78.290963,50.3665217 80.2508445,50.3665217 C81.3138311,50.3665217 82.2472662,50.6485833 82.7604894,50.9596569 L82.1824905,52.0685617 C81.8287153,51.8654773 81.2822737,51.6801226 80.6544473,51.6801226 C79.5300067,51.6801226 79.0134617,52.2103983 79.0134617,53.0501358 C79.0134617,53.9720741 79.8339545,54.5168558 80.878671,54.5168558 C82.2157088,54.5168558 83.7753095,53.9575681 85.0625198,53.3015735 L85.6388578,54.4701142 C85.2219678,54.6603043 84.4479807,54.9391422 83.8699817,55.0809789 M81.9566058,55.4387941 C79.544955,55.9851876 78.4487501,56.6411822 78.4487501,58.1868794 C78.4487501,59.4505151 79.1745706,60.1999929 80.7341712,60.1999929 C81.2822737,60.1999929 81.6676064,60.1371335 81.9566058,60.0130264 L81.9566058,55.4387941" id="Fill-33"></path>
            <polyline id="Fill-34" points="96.2440076 61.2617913 96.2440076 56.4061497 92.7169075 56.4061497 92.7169075 61.2617913 90.6556589 61.2617913 90.6556589 50.5200348 92.7169075 50.5200348 92.7169075 55.0950781 96.2440076 55.0950781 96.2440076 50.5200348 98.3019018 50.5200348 98.3019018 61.2617913 96.2440076 61.2617913"></polyline>
            <path d="M103.413254,61.4295478 C101.059113,61.4295478 99.9951903,60.4428616 99.9951903,58.5764206 L99.9951903,52.8037391 L101.989623,52.8037391 L101.989623,58.6865925 C101.989623,59.4869587 102.448968,60.1139662 103.475738,60.1139662 C104.049919,60.1139662 104.4586,60.0183759 104.80142,59.8320558 L104.80142,52.8037391 L106.795853,52.8037391 L106.795853,60.7571754 C106.061239,61.1330559 104.948342,61.4295478 103.413254,61.4295478" id="Fill-35"></path>
            <path d="M118.055069,61.2617913 L118.055069,55.2539224 C118.055069,54.5167108 117.641882,53.8750938 116.606443,53.8750938 C116.017115,53.8750938 115.569358,54.0630422 115.170986,54.4551415 L115.170986,61.2617913 L113.226863,61.2617913 L113.226863,55.2085555 C113.226863,54.391952 112.668813,53.8572711 111.616912,53.8572711 C111.044046,53.8572711 110.72469,53.9366631 110.344426,54.0922066 L110.344426,61.2617913 L108.395364,61.2617913 L108.395364,53.2626411 C109.257956,52.8543393 110.184747,52.6518087 111.616912,52.6518087 C113.006277,52.6518087 113.801375,53.043908 114.295225,53.5769687 C114.868091,53.0584902 115.745498,52.6518087 117.0542,52.6518087 C119.092154,52.6518087 120.002484,53.9042582 120.002484,55.2393402 L120.002484,61.2617913 L118.055069,61.2617913" id="Fill-36"></path>
            <path d="M124.797368,61.416887 C122.393901,61.416887 121.201458,60.4759205 121.201458,58.8434004 C121.201458,56.6197395 123.44109,55.9751532 126.123244,55.7225013 L126.123244,55.2706431 C126.123244,54.1709594 125.403724,53.8729597 124.373426,53.8729597 C123.522163,53.8729597 122.702991,54.1385681 122.165885,54.39122 L121.706473,53.2931559 C122.280738,53.0275475 123.341438,52.6518087 124.731496,52.6518087 C126.548875,52.6518087 127.986226,53.3887101 127.986226,55.5670232 L127.986226,60.8046919 C127.281907,61.164235 126.170536,61.416887 124.797368,61.416887 M126.123244,56.6343156 C124.241682,56.8529567 123.08133,57.2465107 123.08133,58.781857 C123.08133,59.8799211 123.768759,60.347975 124.929111,60.347975 C125.388523,60.347975 125.829355,60.2556598 126.123244,60.1147578 L126.123244,56.6343156" id="Fill-37"></path>
            <path d="M134.534249,61.2617913 L134.534249,55.2701248 C134.534249,54.5815206 134.20704,53.8572711 132.952178,53.8572711 C132.297761,53.8572711 131.953686,53.9512453 131.579252,54.0922066 L131.579252,61.2617913 L129.587327,61.2617913 L129.587327,53.2626411 C130.422215,52.8867442 131.547205,52.6518087 133.033137,52.6518087 C135.662612,52.6518087 136.52786,53.8750938 136.52786,55.2393402 L136.52786,61.2617913 L134.534249,61.2617913" id="Fill-38"></path>
            <path d="M147.668817,61.2617913 L144.499501,56.3945497 L144.465928,56.3945497 L144.465928,61.2617913 L142.434746,61.2617913 L142.434746,50.9759346 C143.134748,50.6325353 144.207414,50.3665217 145.491591,50.3665217 C148.273135,50.3665217 149.619423,51.6175915 149.619423,53.6296211 C149.619423,55.2531098 148.400714,56.3606934 146.631403,56.4719354 L146.631403,56.5025673 L149.960191,61.2617913 L147.668817,61.2617913 Z M145.491591,51.5079616 C145.051781,51.5079616 144.709334,51.5853474 144.465928,51.693365 L144.465928,55.9092765 C144.596864,55.9560304 144.920845,55.9866623 145.233077,55.9866623 C146.824449,55.9866623 147.605027,55.159602 147.605027,53.7231289 C147.605027,52.2253921 147.002387,51.5079616 145.491591,51.5079616 Z" id="Fill-39"></path>
            <path d="M152.221767,51.4099349 C151.54234,51.4099349 150.993864,50.9913236 150.993864,50.4761096 C150.993864,49.9464053 151.54234,49.5245739 152.221767,49.5245739 C152.920172,49.5245739 153.455363,49.9464053 153.455363,50.4761096 C153.455363,50.9913236 152.920172,51.4099349 152.221767,51.4099349 Z M151.102041,61.2617913 L153.345289,61.2617913 L153.345289,52.8605841 L151.102041,52.8605841 L151.102041,61.2617913 Z" id="Fill-40"></path>
            <path d="M158.221146,64.7245391 C156.964699,64.7245391 155.856465,64.4911952 155.21982,64.1323284 L155.773937,62.8867548 C156.280895,63.1506748 157.062385,63.3856279 157.87756,63.3856279 C159.346223,63.3856279 159.902024,62.6212255 159.902024,61.5011748 L159.902024,60.9701163 C159.558438,61.1567914 159.006005,61.2839236 158.253147,61.2839236 C156.152892,61.2839236 154.717914,59.7245427 154.717914,57.1851174 C154.717914,54.4590169 156.132681,52.6518087 158.97232,52.6518087 C160.259084,52.6518087 161.271316,52.917338 161.823749,53.2585028 L161.823749,61.3305924 C161.823749,63.5723031 160.407298,64.7245391 158.221146,64.7245391 M159.902024,53.9601438 C159.640966,53.8201374 159.29738,53.7718594 158.872949,53.7718594 C157.323443,53.7718594 156.686798,54.9884662 156.686798,57.0901705 C156.686798,59.132332 157.309969,60.176747 158.776947,60.176747 C159.233378,60.176747 159.624123,60.0689261 159.902024,59.9096085 L159.902024,53.9601438" id="Fill-41"></path>
            <path d="M168.375117,61.2617913 L168.375117,55.3586347 C168.375117,54.6104832 168.015857,53.9411691 166.821698,53.9411691 C166.280278,53.9411691 165.858611,54.034487 165.418392,54.2854797 L165.418392,61.2617913 L163.426439,61.2617913 L163.426439,49.0355478 L165.418392,49.0355478 L165.418392,53.2251962 C166.086311,52.9130642 166.707004,52.7730874 167.376611,52.7730874 C169.596263,52.7730874 170.365383,54.0200066 170.365383,55.3119758 L170.365383,61.2617913 L168.375117,61.2617913" id="Fill-42"></path>
            <path d="M174.966988,61.3567478 C173.180908,61.3567478 172.471703,60.2459398 172.471703,59.0770924 L172.471703,54.0647525 L171.461043,54.0647525 L171.461043,52.8475391 L172.471703,52.8475391 L172.471703,50.9902809 L174.529617,50.4614783 L174.529617,52.8475391 L176.014242,52.8475391 L176.014242,54.0647525 L174.529617,54.0647525 L174.529617,58.9819724 C174.529617,59.6381392 174.817132,60.0766584 175.526337,60.0766584 C175.712786,60.0766584 175.845217,60.0444144 176.014242,59.9960483 L176.014242,61.1810177 C175.829535,61.2600156 175.460121,61.3567478 174.966988,61.3567478" id="Fill-43"></path>
            <path d="M179.142688,61.4010609 C178.100926,61.4010609 177.202854,61.1338216 176.675985,60.78884 L177.202854,59.5660178 C177.536423,59.8154411 178.148823,60.0519074 178.877544,60.0519074 C179.70548,60.0519074 180.252876,59.5498215 180.252876,58.8614779 C180.252876,58.139122 179.854303,57.7925207 178.945968,57.4637354 C177.255883,56.8531342 176.906918,55.9752936 176.906918,55.0958334 C176.906918,53.7482996 178.034212,52.6518087 179.739692,52.6518087 C180.735269,52.6518087 181.477674,52.8866553 182.057572,53.2462136 L181.559784,54.3605205 C181.29806,54.1564468 180.76606,53.8892076 180.136554,53.8892076 C179.310328,53.8892076 178.862148,54.4074898 178.862148,55.0035144 C178.862148,55.691858 179.409544,56.0368396 180.186162,56.3348519 C181.925855,56.9924225 182.322717,57.8411097 182.322717,58.8290852 C182.322717,60.2090117 181.097918,61.4010609 179.142688,61.4010609" id="Fill-44"></path>
            <path d="M191.831651,61.416887 C188.965561,61.416887 187.507998,58.873491 187.507998,55.8933015 C187.507998,52.9727481 188.98247,50.3681043 191.84856,50.3681043 C192.895232,50.3681043 193.632468,50.6018131 194.173559,50.9757471 L193.715322,52.1620205 C193.387286,51.9750535 192.927359,51.7880865 192.257759,51.7880865 C190.325051,51.7880865 189.67067,53.8157114 189.67067,55.8755719 C189.67067,57.9515503 190.407906,59.9018095 192.257759,59.9018095 C192.91045,59.9018095 193.289213,59.7615843 193.681504,59.5278755 L194.173559,60.8076324 C193.645995,61.1992961 192.847886,61.416887 191.831651,61.416887" id="Fill-45"></path>
            <path d="M198.263357,61.416887 C195.804791,61.416887 194.61755,59.5365736 194.61755,57.0408261 C194.61755,54.5191655 195.804791,52.6518087 198.263357,52.6518087 C200.74042,52.6518087 201.912527,54.5191655 201.912527,57.0408261 C201.912527,59.5365736 200.723604,61.416887 198.263357,61.416887 M198.263357,53.856764 C196.865909,53.856764 196.588438,55.4099255 196.588438,57.0246304 C196.588438,58.6247593 196.894497,60.1147578 198.263357,60.1147578 C199.682665,60.1147578 199.939957,58.6247593 199.939957,57.0246304 C199.939957,55.4099255 199.682665,53.856764 198.263357,53.856764" id="Fill-46"></path>
            <path d="M212.86185,61.2617913 L212.86185,55.2539224 C212.86185,54.5167108 212.450307,53.8750938 211.411571,53.8750938 C210.820594,53.8750938 210.376127,54.0630422 209.979399,54.4551415 L209.979399,61.2617913 L208.031974,61.2617913 L208.031974,55.2085555 C208.031974,54.391952 207.475567,53.8572711 206.423662,53.8572711 C205.850793,53.8572711 205.528143,53.9366631 205.147877,54.0922066 L205.147877,61.2617913 L203.202098,61.2617913 L203.202098,53.2626411 C204.064694,52.8543393 204.989844,52.6518087 206.423662,52.6518087 C207.811387,52.6518087 208.608135,53.043908 209.100342,53.5769687 C209.67321,53.0584902 210.548975,52.6518087 211.857684,52.6518087 C213.897294,52.6518087 214.807629,53.9042582 214.807629,55.2393402 L214.807629,61.2617913 L212.86185,61.2617913" id="Fill-47"></path>
            <path d="M226.063751,61.2617913 L226.063751,55.2539224 C226.063751,54.5167108 225.652204,53.8750938 224.613457,53.8750938 C224.024121,53.8750938 223.576357,54.0630422 223.181272,54.4551415 L223.181272,61.2617913 L221.23712,61.2617913 L221.23712,55.2085555 C221.23712,54.391952 220.677416,53.8572711 219.6255,53.8572711 C219.052625,53.8572711 218.734911,53.9366631 218.349702,54.0922066 L218.349702,61.2617913 L216.405551,61.2617913 L216.405551,53.2626411 C217.266509,52.8543393 218.191668,52.6518087 219.6255,52.6518087 C221.013238,52.6518087 221.811641,53.043908 222.303852,53.5769687 C222.878372,53.0584902 223.754146,52.6518087 225.061221,52.6518087 C227.102498,52.6518087 228.007902,53.9042582 228.007902,55.2393402 L228.007902,61.2617913 L226.063751,61.2617913" id="Fill-48"></path>
            <path d="M230.810349,51.4099349 C230.130837,51.4099349 229.580394,50.9913236 229.580394,50.4761096 C229.580394,49.9464053 230.130837,49.5245739 230.810349,49.5245739 C231.508842,49.5245739 232.040304,49.9464053 232.040304,50.4761096 C232.040304,50.9913236 231.508842,51.4099349 230.810349,51.4099349 Z M229.690482,61.2617913 L231.934011,61.2617913 L231.934011,52.8605841 L229.690482,52.8605841 L229.690482,61.2617913 Z" id="Fill-49"></path>
            <path d="M235.570878,61.4010609 C234.529115,61.4010609 233.632755,61.1338216 233.104175,60.78884 L233.632755,59.5660178 C233.966324,59.8154411 234.575302,60.0519074 235.307444,60.0519074 C236.131959,60.0519074 236.681066,59.5498215 236.681066,58.8614779 C236.681066,58.139122 236.282493,57.7925207 235.372447,57.4637354 C233.682362,56.8531342 233.336819,55.9752936 233.336819,55.0958334 C233.336819,53.7482996 234.460691,52.6518087 236.167882,52.6518087 C237.160037,52.6518087 237.904154,52.8866553 238.484051,53.2462136 L237.987974,54.3605205 C237.722829,54.1564468 237.192539,53.8892076 236.563033,53.8892076 C235.736808,53.8892076 235.288627,54.4074898 235.288627,55.0035144 C235.288627,55.691858 235.837734,56.0368396 236.616062,56.3348519 C238.352334,56.9924225 238.750907,57.8411097 238.750907,58.8290852 C238.750907,60.2090117 237.526108,61.4010609 235.570878,61.4010609" id="Fill-50"></path>
            <path d="M241.80135,61.4010609 C240.757876,61.4010609 239.863226,61.1338216 239.336358,60.78884 L239.863226,59.5660178 C240.196796,59.8154411 240.809195,60.0519074 241.537916,60.0519074 C242.364141,60.0519074 242.913248,59.5498215 242.913248,58.8614779 C242.913248,58.139122 242.512965,57.7925207 241.604629,57.4637354 C239.914544,56.8531342 239.56729,55.9752936 239.56729,55.0958334 C239.56729,53.7482996 240.692873,52.6518087 242.398354,52.6518087 C243.39393,52.6518087 244.136336,52.8866553 244.716233,53.2462136 L244.218445,54.3605205 C243.956721,54.1564468 243.424721,53.8892076 242.795216,53.8892076 C241.96899,53.8892076 241.520809,54.4074898 241.520809,55.0035144 C241.520809,55.691858 242.066495,56.0368396 242.846534,56.3348519 C244.584516,56.9924225 244.983089,57.8411097 244.983089,58.8290852 C244.983089,60.2090117 243.75658,61.4010609 241.80135,61.4010609" id="Fill-51"></path>
            <path d="M247.429809,51.4099349 C246.750467,51.4099349 246.196367,50.9913236 246.196367,50.4761096 C246.196367,49.9464053 246.750467,49.5245739 247.429809,49.5245739 C248.130025,49.5245739 248.659456,49.9464053 248.659456,50.4761096 C248.659456,50.9913236 248.130025,51.4099349 247.429809,51.4099349 Z M246.310223,61.2617913 L248.549395,61.2617913 L248.549395,52.8605841 L246.310223,52.8605841 L246.310223,61.2617913 Z" id="Fill-52"></path>
            <path d="M253.569496,61.416887 C251.107567,61.416887 249.922007,59.5365736 249.922007,57.0408261 C249.922007,54.5191655 251.107567,52.6518087 253.569496,52.6518087 C256.043196,52.6518087 257.216985,54.5191655 257.216985,57.0408261 C257.216985,59.5365736 256.029743,61.416887 253.569496,61.416887 M253.569496,53.856764 C252.170367,53.856764 251.892896,55.4099255 251.892896,57.0246304 C251.892896,58.6247593 252.200637,60.1147578 253.569496,60.1147578 C254.985442,60.1147578 255.244415,58.6247593 255.244415,57.0246304 C255.244415,55.4099255 254.985442,53.856764 253.569496,53.856764" id="Fill-53"></path>
            <path d="M263.455095,61.2617913 L263.455095,55.2701248 C263.455095,54.5815206 263.129578,53.8572711 261.873047,53.8572711 C261.220326,53.8572711 260.877942,53.9512453 260.501826,54.0922066 L260.501826,61.2617913 L258.506556,61.2617913 L258.506556,53.2626411 C259.341433,52.8867442 260.468094,52.6518087 261.954005,52.6518087 C264.581757,52.6518087 265.448679,53.8750938 265.448679,55.2393402 L265.448679,61.2617913 L263.455095,61.2617913" id="Fill-54"></path>
            <g id="veohrc_logo">
                <path d="M32.3392,73 C40.5718927,72.998413 48.9811024,69.1627391 55.2593854,62.8942609 C67.820722,50.3604783 67.820722,30.0347391 55.2641561,17.5025435 C55.1099024,17.3486087 54.9445171,17.2010217 54.7870829,17.0534348 C66.4133561,29.1190652 66.2702341,48.3037826 54.3545366,60.1916739 C48.3084293,66.2252826 40.2538439,69.3928478 32.3392,69.3928478 C24.4134244,69.3928478 16.371561,66.2252826 10.3254537,60.1916739 C-1.58865366,48.3037826 -1.73018537,29.1190652 9.89449756,17.0534348 C9.73547317,17.2010217 9.57167805,17.3486087 9.41583415,17.5025435 C-3.13914146,30.0347391 -3.13914146,50.3604783 9.42219512,62.8942609 C15.7020683,69.1627391 24.1096878,73 32.3392,73" id="Fill-27"></path>
                <path d="M32.3376098,62.9767826 C25.7078829,62.9767826 19.1847024,59.7076522 14.4982537,55.0340652 C4.94883902,45.5012174 5.41319024,29.8395435 13.965522,20.7145435 C13.7937756,20.876413 13.6093073,21.0128913 13.4423317,21.1811087 C3.78955122,30.8139348 3.15663415,47.7562826 13.4089366,57.9842174 C18.3911707,62.9561522 24.9016293,66.4823696 32.3392,66.4823696 C39.7767707,66.4823696 46.2522439,62.9164783 51.2312976,57.9477174 C61.4883707,47.7150217 60.8920293,30.8139348 51.240839,21.1811087 C51.0738634,21.0128913 50.8878049,20.876413 50.7176488,20.7145435 C59.2683902,29.8395435 59.6929854,45.4599565 50.145161,54.9943913 C45.457122,59.6711522 38.9673366,62.9767826 32.3376098,62.9767826" id="Fill-29"></path>
                <path d="M32.3392,60.0123478 C38.2501366,60.0123478 42.4563317,57.9794565 46.3890049,54.0565 C54.6010244,45.8566957 55.0478829,33.0102826 47.3749561,25.3548043 C47.2095707,25.1913478 47.0251024,25.0485217 46.8533561,24.891413 C53.4719512,32.0422391 52.929678,43.5952826 45.4762049,51.0349348 C41.799561,54.7055652 37.5456585,56.721 32.3392,56.721 C27.1375122,56.721 22.8836098,54.7055652 19.2053756,51.0349348 C11.7503122,43.5952826 11.2064488,32.0422391 17.8266341,24.891413 C17.656478,25.0485217 17.4736,25.1913478 17.3066244,25.3548043 C9.63369756,33.0102826 10.0789659,45.8566957 18.2909854,54.0565 C22.2252488,57.9794565 26.4314439,60.0123478 32.3392,60.0123478" id="Fill-30"></path>
                <path d="M32.3392,53.802587 C36.6757951,53.802587 39.3998829,52.1838913 42.1351024,49.4511522 C47.8234049,43.7777826 48.1271415,34.8797174 42.8189073,29.5824565 C42.6614732,29.4237609 42.4913171,29.2888696 42.3307024,29.1444565 C46.6911512,33.9846739 46.2904098,41.7036304 41.2970439,46.6946087 C38.8019512,49.1813696 36.0190244,50.7127826 32.3392,50.7127826 C28.6641463,50.7127826 25.8812195,49.1813696 23.3845366,46.6946087 C18.3911707,41.7036304 17.9904293,33.9846739 22.3492878,29.1444565 C22.1902634,29.2888696 22.0216976,29.4237609 21.8626732,29.5824565 C16.554439,34.8797174 16.8597659,43.7777826 22.546478,49.4511522 C25.2801073,52.1838913 28.0057854,53.802587 32.3392,53.802587" id="Fill-31"></path>
                <path d="M32.3392,45.0171957 C34.1091415,45.0171957 35.8822634,44.2300652 37.2689561,42.8446522 C39.9421561,40.1738043 40.1520683,36.063587 37.8462146,33.4498696 C38.0465854,33.614913 38.2405951,33.7847174 38.4234732,33.9656304 C41.4672,37.0014783 40.7404585,42.6621522 38.0354537,45.3631522 C36.4579317,46.9326522 34.6498244,47.7737391 32.3392,47.7737391 C30.0317561,47.7737391 28.2236488,46.9326522 26.6477171,45.3631522 C23.9427122,42.6621522 23.2143805,37.0014783 26.2565171,33.9656304 C26.4409854,33.7847174 26.6365854,33.614913 26.8353659,33.4498696 C24.5311024,36.063587 24.7378341,40.1738043 27.4142146,42.8446522 C28.8009073,44.2300652 30.5708488,45.0171957 32.3392,45.0171957" id="Fill-32"></path>
                <path d="M29.2779805,16.5376739 C29.2748,14.8475652 30.644,13.4811957 32.3407902,13.4811957 C34.0328098,13.4811957 35.4051902,14.8475652 35.4051902,16.5376739 C35.4051902,18.2246087 34.0328098,19.598913 32.3392,19.598913 C30.650361,19.598913 29.2779805,18.2246087 29.2779805,16.5376739" id="Fill-55"></path>
                <path d="M28.0837073,5.68765217 C28.0821171,3.33895652 29.9840488,1.44095652 32.3423805,1.44095652 C34.6911707,1.44095652 36.5962829,3.33895652 36.5962829,5.68765217 C36.5962829,8.02841304 34.6911707,9.93752174 32.3392,9.93752174 C29.9872293,9.93752174 28.0837073,8.02841304 28.0837073,5.68765217" id="Fill-56"></path>
                <path d="M30.1621561,25.0802609 C30.1589756,23.8805217 31.1353854,22.9077174 32.3392,22.9077174 C33.5414244,22.9077174 34.5226049,23.8805217 34.5226049,25.0802609 C34.5226049,26.2831739 33.5414244,27.2575652 32.3392,27.2575652 C31.1385659,27.2575652 30.1621561,26.2831739 30.1621561,25.0802609" id="Fill-57"></path>
            </g>
        </g>
    </g>
</svg>