<?xml version="1.0" encoding="UTF-8"?>
<svg width="352px" height="96px" viewBox="0 0 352 96" version="1.1" xmlns="http://www.w3.org/2000/svg" xmlns:xlink="http://www.w3.org/1999/xlink">
    <!-- Generator: Sketch 48.2 (47327) - http://www.bohemiancoding.com/sketch -->
    <title>veohrc logo</title>
    <desc>Created with Sketch.</desc>
    <defs></defs>
    <g id="year-in-review-new" stroke="none" stroke-width="1" fill="none" fill-rule="evenodd" transform="translate(-91.000000, -462.000000)">
        <g id="INTRO-1-Copy" fill="#FFFFFF">
            <g id="veohrc-logo" transform="translate(91.000000, 461.000000)">
                <path d="M107.309413,58.9043043 L105.064623,58.9043043 L100.840623,44.8561739 L103.593389,44.8561739 L105.878228,53.8813913 C106.08479,54.6995652 106.249198,55.656913 106.249198,55.656913 L106.28503,55.656913 C106.28503,55.656913 106.449437,54.6995652 106.656,53.8813913 L108.985102,44.8561739 L111.453317,44.8561739 L107.309413,58.9043043" id="Fill-1"></path>
                <path d="M114.389461,46.0011957 C113.634874,46.0011957 113.023617,45.4508261 113.023617,44.7760435 C113.023617,44.0801739 113.634874,43.531913 114.389461,43.531913 C115.165126,43.531913 115.757413,44.0801739 115.757413,44.7760435 C115.757413,45.4508261 115.165126,46.0011957 114.389461,46.0011957 Z M113.14376,58.9043043 L115.635162,58.9043043 L115.635162,47.8990217 L113.14376,47.8990217 L113.14376,58.9043043 Z" id="Fill-2"></path>
                <path d="M122.308407,59.1088478 C119.795928,59.1088478 117.960048,57.0043696 117.960048,53.371087 C117.960048,49.7167174 119.882347,47.6944783 122.327377,47.6944783 C123.672144,47.6944783 124.470994,48.1014565 124.879904,48.4515 L124.348743,49.8601087 C124.041006,49.6133913 123.592048,49.3919783 122.877509,49.3919783 C121.184958,49.3919783 120.470419,50.9207826 120.470419,53.328913 C120.470419,55.7602391 121.30721,57.3122391 122.837461,57.3122391 C123.509844,57.3122391 123.97988,57.1076957 124.327665,56.820913 L124.898874,58.3518261 C124.449916,58.7588043 123.634204,59.1088478 122.308407,59.1088478" id="Fill-3"></path>
                <path d="M130.511904,59.0266087 C128.345102,59.0266087 127.493557,57.5779348 127.493557,56.0428043 L127.493557,49.4931957 L126.266826,49.4931957 L126.266826,47.8990217 L127.493557,47.8990217 L127.493557,45.4698043 L129.978635,44.7760435 L129.978635,47.8990217 L131.772359,47.8990217 L131.772359,49.4931957 L129.978635,49.4931957 L129.978635,55.9247174 C129.978635,56.7829565 130.328527,57.3523043 131.184287,57.3523043 C131.40982,57.3523043 131.570012,57.3122391 131.772359,57.2489783 L131.772359,58.803087 C131.551042,58.9043043 131.102084,59.0266087 130.511904,59.0266087" id="Fill-4"></path>
                <path d="M137.813269,59.1088478 C134.733796,59.1088478 133.243593,56.6564348 133.243593,53.4111522 C133.243593,50.1258043 134.733796,47.6944783 137.813269,47.6944783 C140.918036,47.6944783 142.385054,50.1258043 142.385054,53.4111522 C142.385054,56.6564348 140.899066,59.1088478 137.813269,59.1088478 M137.813269,49.2675652 C136.057485,49.2675652 135.713916,51.2898043 135.713916,53.3921739 C135.713916,55.4734565 136.103856,57.4134565 137.813269,57.4134565 C139.59224,57.4134565 139.916838,55.4734565 139.916838,53.3921739 C139.916838,51.2898043 139.59224,49.2675652 137.813269,49.2675652" id="Fill-5"></path>
                <path d="M149.44824,49.5332609 C148.607234,49.2464783 147.694563,49.2886522 147.121246,49.6133913 L147.121246,58.9043043 L144.63406,58.9043043 L144.63406,48.4915652 C145.776479,47.939087 147.163401,47.6333261 149.935138,47.7176739 L149.44824,49.5332609" id="Fill-6"></path>
                <path d="M152.894467,46.0011957 C152.141988,46.0011957 151.528623,45.4508261 151.528623,44.7760435 C151.528623,44.0801739 152.141988,43.531913 152.894467,43.531913 C153.670132,43.531913 154.262419,44.0801739 154.262419,44.7760435 C154.262419,45.4508261 153.670132,46.0011957 152.894467,46.0011957 Z M151.650874,58.9043043 L154.142275,58.9043043 L154.142275,47.8990217 L151.650874,47.8990217 L151.650874,58.9043043 Z" id="Fill-7"></path>
                <path d="M160.834491,59.1088478 C157.835114,59.1088478 156.347018,57.8836957 156.347018,55.7602391 C156.347018,52.8607826 159.14194,52.0236304 162.484886,51.6988913 L162.484886,51.1021304 C162.484886,49.6745435 161.589078,49.2886522 160.301222,49.2886522 C159.241006,49.2886522 158.220838,49.6344783 157.550563,49.9613261 L156.977246,48.5337391 C157.691784,48.187913 159.017581,47.6944783 160.752287,47.6944783 C163.018156,47.6944783 164.813988,48.6560435 164.813988,51.4943478 L164.813988,58.3096522 C163.93715,58.7798913 162.54812,59.1088478 160.834491,59.1088478 M162.484886,52.8818696 C160.14103,53.1665435 158.692982,53.6768478 158.692982,55.678 C158.692982,57.1076957 159.548743,57.7192174 160.994683,57.7192174 C161.568,57.7192174 162.12024,57.5948043 162.484886,57.4134565 L162.484886,52.8818696" id="Fill-8"></path>
                <path d="M173.647713,58.9043043 L173.647713,51.1021304 C173.647713,50.2080435 173.238802,49.2654565 171.670611,49.2654565 C170.854898,49.2654565 170.422802,49.3919783 169.954874,49.5733261 L169.954874,58.9043043 L167.465581,58.9043043 L167.465581,48.4915652 C168.508934,48.0023478 169.914826,47.6944783 171.771784,47.6944783 C175.055713,47.6944783 176.141222,49.2886522 176.141222,51.0641739 L176.141222,58.9043043 L173.647713,58.9043043" id="Fill-9"></path>
                <polyline id="Fill-10" points="184.462754 58.9043043 184.462754 44.8561739 191.298299 44.8561739 191.298299 46.5937391 187.057437 46.5937391 187.057437 50.8406522 190.834587 50.8406522 190.834587 52.5550217 187.057437 52.5550217 187.057437 57.1688478 191.298299 57.1688478 191.298299 58.9043043 184.462754 58.9043043"></polyline>
                <path d="M199.421701,63.2925 L199.421701,58.6175217 C198.913725,58.8832174 198.218156,59.0666739 197.322347,59.0666739 C194.708695,59.0666739 192.936048,56.9875 192.936048,53.6768478 C192.936048,50.2691957 194.52321,47.6944783 198.258204,47.6944783 C199.933892,47.6944783 201.154299,48.0613913 201.894132,48.4915652 L201.894132,63.2925 L199.421701,63.2925 Z M199.421701,49.3919783 C199.092886,49.2253913 198.669222,49.1642391 198.135952,49.1642391 C196.260024,49.1642391 195.402156,50.7563043 195.402156,53.5144783 C195.402156,56.0849783 196.17782,57.5547391 197.992623,57.5547391 C198.58491,57.5547391 199.076024,57.4134565 199.421701,57.208913 L199.421701,49.3919783 Z" id="Fill-11"></path>
                <path d="M208.807665,59.1278261 C205.867305,59.1278261 204.547832,57.8457391 204.547832,55.4101957 L204.547832,47.8990217 L207.03291,47.8990217 L207.03291,55.5578043 C207.03291,56.5952826 207.606228,57.4134565 208.889868,57.4134565 C209.606515,57.4134565 210.114491,57.2911522 210.544479,57.0465435 L210.544479,47.8990217 L213.033772,47.8990217 L213.033772,58.2485 C212.112671,58.7419348 210.727856,59.1278261 208.807665,59.1278261" id="Fill-12"></path>
                <path d="M219.643784,59.1088478 C216.644407,59.1088478 215.156311,57.8836957 215.156311,55.7602391 C215.156311,52.8607826 217.951234,52.0236304 221.300503,51.6988913 L221.300503,51.1021304 C221.300503,49.6745435 220.398371,49.2886522 219.114731,49.2886522 C218.054515,49.2886522 217.030132,49.6344783 216.361964,49.9613261 L215.788647,48.5337391 C216.503186,48.187913 217.828982,47.6944783 219.561581,47.6944783 C221.829557,47.6944783 223.623281,48.6560435 223.623281,51.4943478 L223.623281,58.3096522 C222.746443,58.7798913 221.357413,59.1088478 219.643784,59.1088478 M221.300503,52.8818696 C218.948216,53.1665435 217.502275,53.6768478 217.502275,55.678 C217.502275,57.1076957 218.360144,57.7192174 219.810299,57.7192174 C220.379401,57.7192174 220.929533,57.5948043 221.300503,57.4134565 L221.300503,52.8818696" id="Fill-13"></path>
                <polygon id="Fill-14" points="226.378156 58.9043043 228.869557 58.9043043 228.869557 42.8761087 226.378156 42.8761087"></polygon>
                <path d="M242.131737,59.1088478 C238.356695,59.1088478 236.847521,55.8804348 236.847521,51.8802391 C236.847521,47.8990217 238.356695,44.6558478 242.131737,44.6558478 C245.908886,44.6558478 247.396982,47.8990217 247.396982,51.8802391 C247.396982,55.8804348 245.908886,59.1088478 242.131737,59.1088478 M242.131737,46.3681087 C239.96915,46.3681087 239.480144,49.1642391 239.480144,51.8001087 C239.480144,54.4127826 239.905916,57.1857174 242.131737,57.1857174 C244.357557,57.1857174 244.766467,54.4127826 244.766467,51.8001087 C244.766467,49.1642391 244.294323,46.3681087 242.131737,46.3681087" id="Fill-15"></path>
                <path d="M253.846802,59.0476957 C253.214467,59.0476957 252.561054,58.9654565 252.192192,58.8199565 L252.192192,63.2925 L249.723976,63.2925 L249.723976,48.4915652 C250.558659,48.042413 251.785389,47.6944783 253.539066,47.6944783 C256.74079,47.6944783 258.684168,49.7588913 258.684168,53.2698696 C258.684168,56.8609783 256.723928,59.0476957 253.846802,59.0476957 M253.475832,49.1874348 C252.927808,49.1874348 252.539976,49.2675652 252.192192,49.4109565 L252.192192,57.3733913 C252.47885,57.493587 252.845605,57.5547391 253.294563,57.5547391 C255.254802,57.5547391 256.213844,56.0238261 256.213844,53.35 C256.213844,50.7162391 255.497198,49.1874348 253.475832,49.1874348" id="Fill-16"></path>
                <path d="M265.049677,59.0476957 C264.417341,59.0476957 263.763928,58.9654565 263.395066,58.8199565 L263.395066,63.2925 L260.92685,63.2925 L260.92685,48.4915652 C261.763641,48.042413 262.986156,47.6944783 264.74194,47.6944783 C267.949988,47.6944783 269.884934,49.7588913 269.884934,53.2698696 C269.884934,56.8609783 267.924695,59.0476957 265.049677,59.0476957 M264.682922,49.1874348 C264.128575,49.1874348 263.740743,49.2675652 263.395066,49.4109565 L263.395066,57.3733913 C263.679617,57.493587 264.048479,57.5547391 264.497437,57.5547391 C266.457677,57.5547391 267.416719,56.0238261 267.416719,53.35 C267.416719,50.7162391 266.70218,49.1874348 264.682922,49.1874348" id="Fill-17"></path>
                <path d="M276.294707,59.1088478 C273.213126,59.1088478 271.720814,56.6564348 271.720814,53.4111522 C271.720814,50.1258043 273.213126,47.6944783 276.294707,47.6944783 C279.395257,47.6944783 280.864383,50.1258043 280.864383,53.4111522 C280.864383,56.6564348 279.37418,59.1088478 276.294707,59.1088478 M276.294707,49.2675652 C274.536814,49.2675652 274.18903,51.2898043 274.18903,53.3921739 C274.18903,55.4734565 274.57897,57.4134565 276.294707,57.4134565 C278.067353,57.4134565 278.39406,55.4734565 278.39406,53.3921739 C278.39406,51.2898043 278.067353,49.2675652 276.294707,49.2675652" id="Fill-18"></path>
                <path d="M287.921246,49.5332609 C287.088671,49.2464783 286.169677,49.2886522 285.598467,49.6133913 L285.598467,58.9043043 L283.107066,58.9043043 L283.107066,48.4915652 C284.249485,47.939087 285.638515,47.6333261 288.414467,47.7176739 L287.921246,49.5332609" id="Fill-19"></path>
                <path d="M293.698683,59.0266087 C291.538204,59.0266087 290.678228,57.5779348 290.678228,56.0428043 L290.678228,49.4931957 L289.455713,49.4931957 L289.455713,47.8990217 L290.678228,47.8990217 L290.678228,45.4698043 L293.169629,44.7760435 L293.169629,47.8990217 L294.967569,47.8990217 L294.967569,49.4931957 L293.169629,49.4931957 L293.169629,55.9247174 C293.169629,56.7829565 293.513198,57.3523043 294.373174,57.3523043 C294.596599,57.3523043 294.761006,57.3122391 294.967569,57.2489783 L294.967569,58.803087 C294.742036,58.9043043 294.295186,59.0266087 293.698683,59.0266087" id="Fill-20"></path>
                <path d="M301.312,59.1278261 C298.369533,59.1278261 297.047952,57.8457391 297.047952,55.4101957 L297.047952,47.8990217 L299.535138,47.8990217 L299.535138,55.5578043 C299.535138,56.5952826 300.106347,57.4134565 301.392096,57.4134565 C302.11085,57.4134565 302.618826,57.2911522 303.044599,57.0465435 L303.044599,47.8990217 L305.536,47.8990217 L305.536,58.2485 C304.617006,58.7419348 303.230084,59.1278261 301.312,59.1278261" id="Fill-21"></path>
                <path d="M314.369725,58.9043043 L314.369725,51.1021304 C314.369725,50.2080435 313.962922,49.2654565 312.390515,49.2654565 C311.57691,49.2654565 311.144814,49.3919783 310.678994,49.5733261 L310.678994,58.9043043 L308.187593,58.9043043 L308.187593,48.4915652 C309.228838,48.0023478 310.634731,47.6944783 312.491689,47.6944783 C315.78194,47.6944783 316.863234,49.2886522 316.863234,51.0641739 L316.863234,58.9043043 L314.369725,58.9043043" id="Fill-22"></path>
                <path d="M320.840623,46.0011957 C320.083928,46.0011957 319.474778,45.4508261 319.474778,44.7760435 C319.474778,44.0801739 320.083928,43.531913 320.840623,43.531913 C321.61418,43.531913 322.206467,44.0801739 322.206467,44.7760435 C322.206467,45.4508261 321.61418,46.0011957 320.840623,46.0011957 Z M319.594922,58.9043043 L322.086323,58.9043043 L322.086323,47.8990217 L319.594922,47.8990217 L319.594922,58.9043043 Z" id="Fill-23"></path>
                <path d="M328.470802,59.0266087 C326.308216,59.0266087 325.452455,57.5779348 325.452455,56.0428043 L325.452455,49.4931957 L324.227832,49.4931957 L324.227832,47.8990217 L325.452455,47.8990217 L325.452455,45.4698043 L327.939641,44.7760435 L327.939641,47.8990217 L329.737581,47.8990217 L329.737581,49.4931957 L327.939641,49.4931957 L327.939641,55.9247174 C327.939641,56.7829565 328.287425,57.3523043 329.145293,57.3523043 C329.370826,57.3523043 329.533126,57.3122391 329.737581,57.2489783 L329.737581,58.803087 C329.514156,58.9043043 329.065198,59.0266087 328.470802,59.0266087" id="Fill-24"></path>
                <path d="M335.388551,63.2925 L332.755928,63.2925 L334.553868,58.9043043 L330.922156,47.8990217 L333.571641,47.8990217 L335.470754,55.026413 C335.696287,55.8804348 335.696287,56.5952826 335.696287,56.5952826 L335.736335,56.5952826 C335.736335,56.5952826 335.797461,55.8804348 336.041964,55.026413 L338.082299,47.8990217 L340.407186,47.8990217 L335.388551,63.2925" id="Fill-25"></path>
                <path d="M111.042299,73.2771739 L111.042299,80.7482826 C110.268743,81.2375 108.879713,81.5664565 106.940551,81.5664565 C103.593389,81.5664565 101.491928,80.094587 101.491928,77.4798043 C101.491928,75.3985217 102.980024,74.0721522 104.879138,73.4817174 L104.879138,73.4374348 C103.285653,72.9081522 102.391952,71.8685652 102.391952,70.3988043 C102.391952,68.4988696 103.962251,67.1092391 106.449437,67.1092391 C107.798419,67.1092391 108.982994,67.4782609 109.634299,67.8852391 L108.90079,69.3360217 C108.451832,69.0703261 107.758371,68.8278261 106.961629,68.8278261 C105.534659,68.8278261 104.879138,69.521587 104.879138,70.6202174 C104.879138,71.8263913 105.920383,72.5391304 107.24618,72.5391304 C108.942946,72.5391304 110.922156,71.807413 112.555689,70.9491739 L113.28709,72.4779783 C112.758036,72.7268043 111.775808,73.0916087 111.042299,73.2771739 M108.614132,73.7453043 C105.553629,74.4601522 104.162491,75.3183913 104.162491,77.3406304 C104.162491,78.9938478 105.083593,79.9743913 107.062802,79.9743913 C107.758371,79.9743913 108.247377,79.8921522 108.614132,79.7297826 L108.614132,73.7453043" id="Fill-33"></path>
                <polyline id="Fill-34" points="127.493557 81.3598043 127.493557 75.0105217 123.060886 75.0105217 123.060886 81.3598043 120.470419 81.3598043 120.470419 67.3137826 123.060886 67.3137826 123.060886 73.2961522 127.493557 73.2961522 127.493557 67.3137826 130.079808 67.3137826 130.079808 81.3598043 127.493557 81.3598043"></polyline>
                <path d="M137.121916,81.5833261 C134.183665,81.5833261 132.85576,80.2991304 132.85576,77.869913 L132.85576,70.3566304 L135.345054,70.3566304 L135.345054,78.0133043 C135.345054,79.055 135.918371,79.8710652 137.199904,79.8710652 C137.916551,79.8710652 138.426635,79.7466522 138.854515,79.5041522 L138.854515,70.3566304 L141.343808,70.3566304 L141.343808,80.7082174 C140.426922,81.1974348 139.037892,81.5833261 137.121916,81.5833261" id="Fill-35"></path>
                <path d="M156.36388,81.3598043 L156.36388,73.5407609 C156.36388,72.5813043 155.834826,71.7462609 154.50903,71.7462609 C153.754443,71.7462609 153.181126,71.9908696 152.671042,72.5011739 L152.671042,81.3598043 L150.181749,81.3598043 L150.181749,73.4817174 C150.181749,72.4189348 149.46721,71.7230652 148.120335,71.7230652 C147.386826,71.7230652 146.977916,71.8263913 146.491018,72.0288261 L146.491018,81.3598043 L143.995401,81.3598043 L143.995401,70.9491739 C145.09988,70.4177826 146.286563,70.1541957 148.120335,70.1541957 C149.899305,70.1541957 150.917365,70.6645 151.549701,71.3582609 C152.28321,70.6834783 153.406659,70.1541957 155.082347,70.1541957 C157.691784,70.1541957 158.857389,71.7842174 158.857389,73.5217826 L158.857389,81.3598043 L156.36388,81.3598043" id="Fill-36"></path>
                <path d="M165.465293,81.5664565 C162.465916,81.5664565 160.97782,80.3413043 160.97782,78.2157391 C160.97782,75.3205 163.772743,74.4812391 167.119904,74.1522826 L167.119904,73.5639565 C167.119904,72.1321522 166.221988,71.7441522 164.93624,71.7441522 C163.873916,71.7441522 162.851641,72.0899783 162.181365,72.4189348 L161.608048,70.9892391 C162.324695,70.643413 163.648383,70.1541957 165.38309,70.1541957 C167.651066,70.1541957 169.44479,71.1136522 169.44479,73.9498478 L169.44479,80.7693696 C168.565844,81.2375 167.178922,81.5664565 165.465293,81.5664565 M167.119904,75.3394783 C164.771832,75.6241522 163.323784,76.1365652 163.323784,78.1356087 C163.323784,79.5653043 164.181653,80.1747174 165.629701,80.1747174 C166.203018,80.1747174 166.75315,80.0545217 167.119904,79.8710652 L167.119904,75.3394783" id="Fill-37"></path>
                <path d="M178.280623,81.3598043 L178.280623,73.5618478 C178.280623,72.6656522 177.871713,71.7230652 176.303521,71.7230652 C175.485701,71.7230652 175.055713,71.8453696 174.587784,72.0288261 L174.587784,81.3598043 L172.098491,81.3598043 L172.098491,70.9491739 C173.141844,70.4599565 174.547737,70.1541957 176.404695,70.1541957 C179.690731,70.1541957 180.772024,71.7462609 180.772024,73.5217826 L180.772024,81.3598043 L178.280623,81.3598043" id="Fill-38"></path>
                <path d="M195.707784,81.3598043 L191.728287,74.9936522 L191.686132,74.9936522 L191.686132,81.3598043 L189.135713,81.3598043 L189.135713,67.9063261 C190.014659,67.4571739 191.361533,67.1092391 192.973988,67.1092391 C196.466587,67.1092391 198.15703,68.745587 198.15703,71.3772391 C198.15703,73.5006957 196.626778,74.9493696 194.405174,75.0948696 L194.405174,75.1349348 L198.58491,81.3598043 L195.707784,81.3598043 Z M192.973988,68.6021957 C192.421749,68.6021957 191.99176,68.703413 191.686132,68.8446957 L191.686132,74.3589348 C191.850539,74.420087 192.257341,74.4601522 192.649389,74.4601522 C194.647569,74.4601522 195.627689,73.3783913 195.627689,71.4995435 C195.627689,69.5405652 194.870994,68.6021957 192.973988,68.6021957 Z" id="Fill-39"></path>
                <path d="M201.849868,68.4566957 C201.095281,68.4566957 200.486132,67.9084348 200.486132,67.2336522 C200.486132,66.5398913 201.095281,65.987413 201.849868,65.987413 C202.625533,65.987413 203.219928,66.5398913 203.219928,67.2336522 C203.219928,67.9084348 202.625533,68.4566957 201.849868,68.4566957 Z M200.606275,81.3598043 L203.097677,81.3598043 L203.097677,70.3566304 L200.606275,70.3566304 L200.606275,81.3598043 Z" id="Fill-40"></path>
                <path d="M209.808862,85.9736304 C208.236455,85.9736304 206.849533,85.6678696 206.05279,85.1976304 L206.746251,83.5655 C207.380695,83.9113261 208.358707,84.2191957 209.378874,84.2191957 C211.216862,84.2191957 211.912431,83.2175652 211.912431,81.749913 L211.912431,81.0540435 C211.482443,81.2986522 210.79109,81.4652391 209.84891,81.4652391 C207.220503,81.4652391 205.424671,79.421913 205.424671,76.0943913 C205.424671,72.5222609 207.19521,70.1541957 210.748934,70.1541957 C212.359281,70.1541957 213.62606,70.5021304 214.317413,70.9491739 L214.317413,81.5263913 C214.317413,84.4638043 212.544766,85.9736304 209.808862,85.9736304 M211.912431,71.8685652 C211.585725,71.6851087 211.155737,71.6218478 210.624575,71.6218478 C208.685413,71.6218478 207.888671,73.2160217 207.888671,75.9699783 C207.888671,78.645913 208.668551,80.0144565 210.504431,80.0144565 C211.075641,80.0144565 211.564647,79.8731739 211.912431,79.664413 L211.912431,71.8685652" id="Fill-41"></path>
                <path d="M223.157461,81.3598043 L223.157461,73.623 C223.157461,72.6424565 222.708503,71.7652391 221.216192,71.7652391 C220.539593,71.7652391 220.012647,71.8875435 219.462515,72.2165 L219.462515,81.3598043 L216.973222,81.3598043 L216.973222,65.3358261 L219.462515,65.3358261 L219.462515,70.8268696 C220.297198,70.4177826 221.072862,70.2343261 221.909653,70.2343261 C224.683497,70.2343261 225.644647,71.8685652 225.644647,73.5618478 L225.644647,81.3598043 L223.157461,81.3598043" id="Fill-42"></path>
                <path d="M231.868934,81.4863261 C229.708455,81.4863261 228.850587,80.0334348 228.850587,78.5046304 L228.850587,71.9486957 L227.628072,71.9486957 L227.628072,70.3566304 L228.850587,70.3566304 L228.850587,67.927413 L231.33988,67.2357609 L231.33988,70.3566304 L233.135713,70.3566304 L233.135713,71.9486957 L231.33988,71.9486957 L231.33988,78.3802174 C231.33988,79.2384565 231.687665,79.8120217 232.545533,79.8120217 C232.771066,79.8120217 232.931257,79.7698478 233.135713,79.706587 L233.135713,81.2564783 C232.912287,81.3598043 232.465437,81.4863261 231.868934,81.4863261" id="Fill-43"></path>
                <path d="M237.583138,81.5453696 C236.299497,81.5453696 235.19291,81.1974348 234.543713,80.7482826 L235.19291,79.1562174 C235.603928,79.4809565 236.358515,79.7888261 237.256431,79.7888261 C238.276599,79.7888261 238.95109,79.1351304 238.95109,78.2389348 C238.95109,77.2984565 238.459976,76.8471957 237.340743,76.4191304 C235.258251,75.6241522 234.828263,74.4812391 234.828263,73.3362174 C234.828263,71.5817826 236.217293,70.1541957 238.318754,70.1541957 C239.545485,70.1541957 240.460263,70.4599565 241.174802,70.928087 L240.561437,72.3788696 C240.238946,72.1131739 239.583425,71.7652391 238.80776,71.7652391 C237.789701,71.7652391 237.237461,72.4400217 237.237461,73.2160217 C237.237461,74.1122174 237.911952,74.5613696 238.868886,74.9493696 C241.012503,75.8055 241.501509,76.9104565 241.501509,78.1967609 C241.501509,79.9933696 239.992335,81.5453696 237.583138,81.5453696" id="Fill-44"></path>
                <path d="M254.297868,81.5664565 C250.725174,81.5664565 248.908263,78.2389348 248.908263,74.3399565 C248.908263,70.519 250.746251,67.1113478 254.318946,67.1113478 C255.623665,67.1113478 256.542659,67.4171087 257.21715,67.9063261 L256.64594,69.4583261 C256.23703,69.2137174 255.663713,68.9691087 254.82903,68.9691087 C252.419832,68.9691087 251.60412,71.6218478 251.60412,74.3167609 C251.60412,77.0327609 252.523114,79.5842826 254.82903,79.5842826 C255.642635,79.5842826 256.114778,79.4008261 256.603784,79.0950652 L257.21715,80.7693696 C256.559521,81.2817826 255.564647,81.5664565 254.297868,81.5664565" id="Fill-45"></path>
                <path d="M262.90606,81.5664565 C259.824479,81.5664565 258.336383,79.1182609 258.336383,75.8687609 C258.336383,72.5855217 259.824479,70.1541957 262.90606,70.1541957 C266.010826,70.1541957 267.479952,72.5855217 267.479952,75.8687609 C267.479952,79.1182609 265.989749,81.5664565 262.90606,81.5664565 M262.90606,71.7230652 C261.154491,71.7230652 260.806707,73.7453043 260.806707,75.8476739 C260.806707,77.9310652 261.190323,79.8710652 262.90606,79.8710652 C264.68503,79.8710652 265.007521,77.9310652 265.007521,75.8476739 C265.007521,73.7453043 264.68503,71.7230652 262.90606,71.7230652" id="Fill-46"></path>
                <path d="M282.089006,81.3598043 L282.089006,73.5407609 C282.089006,72.5813043 281.56206,71.7462609 280.232048,71.7462609 C279.475353,71.7462609 278.906251,71.9908696 278.398275,72.5011739 L278.398275,81.3598043 L275.904766,81.3598043 L275.904766,73.4817174 C275.904766,72.4189348 275.192335,71.7230652 273.845461,71.7230652 C273.111952,71.7230652 272.698826,71.8263913 272.211928,72.0288261 L272.211928,81.3598043 L269.720527,81.3598043 L269.720527,70.9491739 C270.825006,70.4177826 272.009581,70.1541957 273.845461,70.1541957 C275.622323,70.1541957 276.642491,70.6645 277.272719,71.3582609 C278.006228,70.6834783 279.127569,70.1541957 280.803257,70.1541957 C283.414802,70.1541957 284.580407,71.7842174 284.580407,73.5217826 L284.580407,81.3598043 L282.089006,81.3598043" id="Fill-47"></path>
                <path d="M299.596263,81.3598043 L299.596263,73.5407609 C299.596263,72.5813043 299.069317,71.7462609 297.739305,71.7462609 C296.984719,71.7462609 296.411401,71.9908696 295.905533,72.5011739 L295.905533,81.3598043 L293.41624,81.3598043 L293.41624,73.4817174 C293.41624,72.4189348 292.699593,71.7230652 291.352719,71.7230652 C290.61921,71.7230652 290.212407,71.8263913 289.719186,72.0288261 L289.719186,81.3598043 L287.229892,81.3598043 L287.229892,70.9491739 C288.332263,70.4177826 289.516838,70.1541957 291.352719,70.1541957 C293.129581,70.1541957 294.151856,70.6645 294.782084,71.3582609 C295.517701,70.6834783 296.639042,70.1541957 298.312623,70.1541957 C300.926275,70.1541957 302.085557,71.7842174 302.085557,73.5217826 L302.085557,81.3598043 L299.596263,81.3598043" id="Fill-48"></path>
                <path d="M306.067162,68.4566957 C305.312575,68.4566957 304.701317,67.9084348 304.701317,67.2336522 C304.701317,66.5398913 305.312575,65.987413 306.067162,65.987413 C306.842826,65.987413 307.433006,66.5398913 307.433006,67.2336522 C307.433006,67.9084348 306.842826,68.4566957 306.067162,68.4566957 Z M304.823569,81.3598043 L307.31497,81.3598043 L307.31497,70.3566304 L304.823569,70.3566304 L304.823569,81.3598043 Z" id="Fill-49"></path>
                <path d="M312.413701,81.5453696 C311.13006,81.5453696 310.025581,81.1974348 309.374275,80.7482826 L310.025581,79.1562174 C310.436599,79.4809565 311.18697,79.7888261 312.089102,79.7888261 C313.105054,79.7888261 313.781653,79.1351304 313.781653,78.2389348 C313.781653,77.2984565 313.290539,76.8471957 312.169198,76.4191304 C310.086707,75.6241522 309.660934,74.4812391 309.660934,73.3362174 C309.660934,71.5817826 311.045749,70.1541957 313.149317,70.1541957 C314.371832,70.1541957 315.288719,70.4599565 316.003257,70.928087 L315.392,72.3788696 C315.065293,72.1131739 314.41188,71.7652391 313.636216,71.7652391 C312.618156,71.7652391 312.065916,72.4400217 312.065916,73.2160217 C312.065916,74.1122174 312.742515,74.5613696 313.701557,74.9493696 C315.840958,75.8055 316.332072,76.9104565 316.332072,78.1967609 C316.332072,79.9933696 314.822898,81.5453696 312.413701,81.5453696" id="Fill-50"></path>
                <path d="M320.676216,81.5453696 C319.390467,81.5453696 318.288096,81.1974348 317.638898,80.7482826 L318.288096,79.1562174 C318.699114,79.4809565 319.453701,79.7888261 320.351617,79.7888261 C321.369677,79.7888261 322.046275,79.1351304 322.046275,78.2389348 C322.046275,77.2984565 321.553054,76.8471957 320.43382,76.4191304 C318.351329,75.6241522 317.923449,74.4812391 317.923449,73.3362174 C317.923449,71.5817826 319.310371,70.1541957 321.411832,70.1541957 C322.638563,70.1541957 323.553341,70.4599565 324.26788,70.928087 L323.654515,72.3788696 C323.332024,72.1131739 322.676503,71.7652391 321.900838,71.7652391 C320.882778,71.7652391 320.330539,72.4400217 320.330539,73.2160217 C320.330539,74.1122174 321.002922,74.5613696 321.964072,74.9493696 C324.105581,75.8055 324.596695,76.9104565 324.596695,78.1967609 C324.596695,79.9933696 323.085413,81.5453696 320.676216,81.5453696" id="Fill-51"></path>
                <path d="M328.106156,68.4566957 C327.351569,68.4566957 326.736096,67.9084348 326.736096,67.2336522 C326.736096,66.5398913 327.351569,65.987413 328.106156,65.987413 C328.883928,65.987413 329.472,66.5398913 329.472,67.2336522 C329.472,67.9084348 328.883928,68.4566957 328.106156,68.4566957 Z M326.862563,81.3598043 L329.349749,81.3598043 L329.349749,70.3566304 L326.862563,70.3566304 L326.862563,81.3598043 Z" id="Fill-52"></path>
                <path d="M336.248527,81.5664565 C333.162731,81.5664565 331.676743,79.1182609 331.676743,75.8687609 C331.676743,72.5855217 333.162731,70.1541957 336.248527,70.1541957 C339.349078,70.1541957 340.820311,72.5855217 340.820311,75.8687609 C340.820311,79.1182609 339.332216,81.5664565 336.248527,81.5664565 M336.248527,71.7230652 C334.49485,71.7230652 334.147066,73.7453043 334.147066,75.8476739 C334.147066,77.9310652 334.53279,79.8710652 336.248527,79.8710652 C338.023281,79.8710652 338.34788,77.9310652 338.34788,75.8476739 C338.34788,73.7453043 338.023281,71.7230652 336.248527,71.7230652" id="Fill-53"></path>
                <path d="M349.245126,81.3598043 L349.245126,73.5618478 C349.245126,72.6656522 348.838323,71.7230652 347.268024,71.7230652 C346.452311,71.7230652 346.024431,71.8453696 345.554395,72.0288261 L345.554395,81.3598043 L343.060886,81.3598043 L343.060886,70.9491739 C344.10424,70.4599565 345.51224,70.1541957 347.369198,70.1541957 C350.653126,70.1541957 351.736527,71.7462609 351.736527,73.5217826 L351.736527,81.3598043 L349.245126,81.3598043" id="Fill-54"></path>
                <g id="veohrc_logo" stroke-width="1">
                    <path d="M42.8639042,97 C53.7759042,96.9978913 64.9218683,91.9011739 73.2434012,83.5718261 C89.8927904,66.9173478 89.8927904,39.9091739 73.2497246,23.2568043 C73.0452695,23.0522609 72.8260599,22.8561522 72.6173892,22.6600435 C88.0274012,38.6924565 87.8377006,64.1844783 72.0440719,79.9807174 C64.0302754,87.9979783 53.3543473,92.2069348 42.8639042,92.2069348 C32.3587066,92.2069348 21.6996407,87.9979783 13.6858443,79.9807174 C-2.10567665,64.1844783 -2.29326946,38.6924565 13.1146347,22.6600435 C12.9038563,22.8561522 12.6867545,23.0522609 12.4801916,23.2568043 C-4.16076647,39.9091739 -4.16076647,66.9173478 12.4886228,83.5718261 C20.8122635,91.9011739 31.9561198,97 42.8639042,97" id="Fill-27"></path>
                    <path d="M42.8617964,83.6814783 C34.0744431,83.6814783 25.4283114,79.3375652 19.2166707,73.1274565 C6.55942515,60.4605217 7.1748982,39.6498043 18.5105629,27.5248043 C18.2829222,27.7398913 18.0384192,27.9212391 17.8171018,28.1447609 C5.0228503,40.9445435 4.1839521,63.4569783 17.7728383,77.0475217 C24.3765269,83.6540652 33.0057964,88.339587 42.8639042,88.339587 C52.722012,88.339587 61.3049102,83.6013478 67.9043832,76.9990217 C81.4995928,63.4021522 80.7091737,40.9445435 67.9170299,28.1447609 C67.6957126,27.9212391 67.4491018,27.7398913 67.2235689,27.5248043 C78.5571257,39.6498043 79.1199042,60.4056957 66.4647665,73.0747391 C60.251018,79.2890652 51.6491497,83.6814783 42.8617964,83.6814783" id="Fill-29"></path>
                    <path d="M42.8639042,79.7424348 C50.6985389,79.7424348 56.2736287,77.0411957 61.4861796,71.8285 C72.3707784,60.9328696 72.9630659,43.8629783 62.793006,33.6906304 C62.5737964,33.4734348 62.3292934,33.2836522 62.1016527,33.0748913 C70.8742515,42.5766739 70.155497,57.9279783 60.2763114,67.8135435 C55.4031138,72.6909565 49.7647904,75.369 42.8639042,75.369 C35.9693413,75.369 30.331018,72.6909565 25.4557126,67.8135435 C15.5744192,57.9279783 14.8535569,42.5766739 23.6282635,33.0748913 C23.4027305,33.2836522 23.1603353,33.4734348 22.939018,33.6906304 C12.7689581,43.8629783 13.3591377,60.9328696 24.2437365,71.8285 C29.4583952,77.0411957 35.033485,79.7424348 42.8639042,79.7424348" id="Fill-30"></path>
                    <path d="M42.8639042,71.4911087 C48.6118323,71.4911087 52.2224671,69.3402391 55.8478563,65.7090652 C63.3874012,58.1704783 63.789988,46.3470217 56.7542036,39.3081957 C56.5455329,39.0973261 56.32,38.918087 56.1071138,38.7261957 C61.8866587,45.1577174 61.355497,55.414413 54.7370539,62.0462609 C51.4299401,65.350587 47.7413174,67.3854783 42.8639042,67.3854783 C37.9928144,67.3854783 34.3041916,65.350587 30.9949701,62.0462609 C24.3765269,55.414413 23.8453653,45.1577174 29.6228024,38.7261957 C29.412024,38.918087 29.1885988,39.0973261 28.9778204,39.3081957 C21.9420359,46.3470217 22.3467305,58.1704783 29.8841677,65.7090652 C33.5074491,69.3402391 37.1201916,71.4911087 42.8639042,71.4911087" id="Fill-31"></path>
                    <path d="M42.8639042,59.8173696 C45.2098683,59.8173696 47.5600479,58.7714565 49.3980359,56.9305652 C52.9412216,53.3816304 53.2194491,47.9201087 50.1631617,44.447087 C50.4287425,44.6663913 50.6858922,44.8920217 50.9282874,45.132413 C54.9625868,49.1663478 53.9993293,56.6880652 50.413988,60.2770652 C48.3230659,62.3625652 45.926515,63.4801739 42.8639042,63.4801739 C39.805509,63.4801739 37.4089581,62.3625652 35.3201437,60.2770652 C31.7348024,56.6880652 30.7694371,49.1663478 34.8016287,45.132413 C35.0461317,44.8920217 35.3053892,44.6663913 35.5688623,44.447087 C32.5146826,47.9201087 32.7886946,53.3816304 36.3360958,56.9305652 C38.1740838,58.7714565 40.5200479,59.8173696 42.8639042,59.8173696" id="Fill-32"></path>
                    <path d="M38.8064192,21.9747174 C38.8022036,19.7289565 40.617006,17.9133696 42.866012,17.9133696 C45.1086946,17.9133696 46.9277126,19.7289565 46.9277126,21.9747174 C46.9277126,24.2162609 45.1086946,26.0423913 42.8639042,26.0423913 C40.6254371,26.0423913 38.8064192,24.2162609 38.8064192,21.9747174" id="Fill-55"></path>
                    <path d="M37.2234731,7.55756522 C37.2213653,4.43669565 39.7422754,1.91469565 42.8681198,1.91469565 C45.9813174,1.91469565 48.5064431,4.43669565 48.5064431,7.55756522 C48.5064431,10.6678913 45.9813174,13.2046522 42.8639042,13.2046522 C39.746491,13.2046522 37.2234731,10.6678913 37.2234731,7.55756522" id="Fill-56"></path>
                    <path d="M39.9783473,33.3258261 C39.9741317,31.7316522 41.2683114,30.4390217 42.8639042,30.4390217 C44.4573892,30.4390217 45.7578922,31.7316522 45.7578922,33.3258261 C45.7578922,34.9242174 44.4573892,36.2189565 42.8639042,36.2189565 C41.2725269,36.2189565 39.9783473,34.9242174 39.9783473,33.3258261" id="Fill-57"></path>
                </g>
            </g>
        </g>
    </g>
</svg>