<?xml version="1.0" encoding="UTF-8"?>
<svg width="265px" height="505px" viewBox="0 0 265 505" version="1.1" xmlns="http://www.w3.org/2000/svg" xmlns:xlink="http://www.w3.org/1999/xlink">
    <!-- Generator: Sketch 48.2 (47327) - http://www.bohemiancoding.com/sketch -->
    <title>wheelchair</title>
    <desc>Created with Sketch.</desc>
    <defs>
        <path d="M9.9357,33.8921593 C4.835175,29.4400636 0.986925,23.6515713 0.49065,16.6373718 C-0.939225,-3.57243411 27.996525,-3.08692145 34.944675,6.25175759 C41.89275,15.5903628 44.89575,41.3017839 38.036925,44.0916911 C35.301675,45.2043458 29.004075,44.2774043 22.329825,41.4788576 L30.030525,67.8349214 L7.225275,70.9905691 L9.9357,33.8921593 Z" id="path-1"></path>
        <path d="M12.3167354,1.74061017 C13.7809412,2.35519322 17.4369323,4.82762034 17.7873009,5.31385763 C18.4721123,6.26418305 17.2208492,8.18109153 16.9467452,8.71908475 C16.5632538,9.47155932 16.1620422,10.214339 15.7460262,10.9477966 C15.0149326,12.2368475 14.2475012,13.5032271 13.5036969,14.7843729 C10.9846468,19.1228475 9.03197354,23.8283864 7.04243908,28.4473424 C5.93630308,31.0154508 4.75539785,33.5423932 3.58174523,36.0770915 C3.39556985,36.4790576 3.21231046,36.8820678 3.03391108,37.2870915 C2.99428338,37.4780068 2.95301077,37.6685492 2.90829877,37.8582712 C2.45115969,39.7962102 2.04920031,41.8268475 1.41298892,43.7077356 C1.32005077,43.4033898 1.23025292,43.0985966 1.14060462,42.794922 C1.037124,42.4395661 0.946802769,42.0834644 0.868369846,41.7266169 C0.865678154,41.7149831 0.862612615,41.7036475 0.859995692,41.6920136 C0.853341231,41.6637492 0.848481231,41.6360068 0.842948308,41.6080407 C0.350069538,39.2841695 0.368687077,36.9292746 0.665296615,34.5627458 C1.12968831,30.8564542 1.88568,27.1971458 2.35657662,23.4884678 C2.68391631,20.9110373 2.93626246,18.3251797 3.30053815,15.7530441 C3.65830892,13.2263254 4.07821292,10.6965492 4.620888,8.20585085 C4.89947815,6.92694237 5.19788215,5.63543051 5.57838277,4.38635254 C5.75184738,3.81733559 5.93817231,3.25309153 6.14969446,2.69831864 C6.16868585,2.64857627 6.18745292,2.59212203 6.20622,2.53201356 C6.27358708,1.76492203 8.15747262,0.623979661 8.81708677,0.294054237 C8.84056431,0.282345763 9.84673385,0.80460339 9.98543077,0.843308475 C10.5707243,1.00282712 11.7523772,1.50375593 12.3167354,1.74061017 Z" id="path-3"></path>
        <path d="M39.6455231,2.37044158 C36.8691831,1.86380651 34.8638015,12.8047939 34.4788877,14.9578639 C33.6097785,19.8201153 33.2040585,24.7527839 32.3833462,29.6244735 C31.6946323,33.7120621 30.5658231,37.9665137 31.5159708,42.1142703 C31.7457431,43.11707 33.4282523,43.2525217 34.8206815,44.2536255 C36.2131862,45.2547293 38.6311477,48.2083432 40.6019277,54.818563 C40.6653262,54.9621256 41.44616,59.0449214 42.1169323,60.8713441 C43.2556923,63.9718387 47.1184754,67.0216771 48.6658954,69.8515631 L4.23631385,75.9591296 C1.55714462,73.8775091 3.48442769,64.6242484 3.85871231,61.8107315 C4.14004769,59.6961514 4.79122,57.7331709 5.26358,55.6677721 C5.57808462,54.2923881 5.73533692,52.8788091 5.82383846,51.4718664 C5.87819077,50.6085738 5.91467692,49.8252103 5.55629846,49.0330722 C5.24232154,48.3388546 4.72262,47.6916064 4.37306154,47.0064582 C3.80217385,45.887378 3.51948154,44.7410894 3.12047077,43.5650118 C2.76616308,42.5206991 2.25678923,41.5264527 1.93210769,40.4544155 C0.454192308,35.5735091 -0.0670169231,30.4764108 0.601267692,25.4267243 C1.23781538,20.6175623 3.07787846,15.4776238 6.32514615,11.9826456 C9.92724923,8.10586611 15.4955338,4.70998808 20.4530523,2.97160527 C27.8533338,0.376713514 36.701,-0.2128 39.2354308,1.16575468 C39.7824969,1.46335024 40.1802262,2.46799335 39.6455231,2.37044158 Z" id="path-5"></path>
        <path d="M21.2916857,0.493228095 C20.3825,5.95539348 20.4199214,8.79722431 21.7718167,15.8939359 L20.9671452,16.007615 C18.5210238,9.47581179 18.9714095,2.93777546 20.2802738,0.636143291 L21.2916857,0.493228095 Z M1.17120952,17.1009237 C5.27014762,24.1228385 7.27931667,28.327558 16.659031,33.153209 L16.0646429,33.7101776 C6.91565714,30.0812744 3.64309048,24.6730546 0.571654762,17.5022884 L1.17120952,17.1009237 Z M12.6710286,7.7410172 C15.5384548,18.1247783 16.7886405,24.1108176 25.6395833,34.6618325 L24.9031119,35.0070254 C16.0503238,25.9822202 13.7206,17.9245783 11.9606857,7.90062809 L12.6710286,7.7410172 Z M9.07458571,40.2974848 L9.62055476,39.4002208 C19.0000476,40.9586345 18.81545,46.938144 30.9576333,51.2517936 L30.0925119,51.9611012 C19.6097881,49.2519455 16.061469,40.7659291 9.07458571,40.2974848 Z" id="path-7"></path>
        <path d="M62.3423375,4.72001749 C69.2482998,-4.5152 86.5107321,1.59840874 86.5003142,9.24368962 C86.4730327,29.3169923 67.8950184,124.612713 66.9250268,130.629189 C65.9550352,136.645666 55.5640885,138.61395 54.9590242,131.096345 C53.9962278,119.134588 52.207417,77.6677421 53.9972021,58.3764022 C54.5199723,52.7414689 55.0712231,47.2947803 55.6263712,42.1921049 C45.8624489,59.4874404 31.0153271,83.9329574 11.0849307,115.52873 L0.00774985755,110.538645 C8.70627035,82.2801486 15.8389537,62.330435 21.4058,50.6894295 C30.9375299,30.7572546 39.8750631,13.6879913 43.6366098,7.67545355 C48.6053621,-0.26664918 56.6644166,0.787685246 62.3423375,4.72001749 Z" id="path-9"></path>
        <path d="M0.0416833351,94.80588 L37.2502213,6.0372 C46.1640189,-8.40312571 71.1559239,8.97572 68.116124,17.3509886 C61.2148497,36.3655314 26.1164648,97.9237257 24.0603712,103.588754 L0.0416833351,94.80588 Z" id="path-11"></path>
        <path d="M162.713404,28.8337744 C162.713404,54.0250331 151.550147,113.240028 151.542446,118.787213 L124.500148,117.885119 C129.227148,66.4012562 131.220608,40.4848412 130.480453,40.1360225 C128.815087,39.3510687 62.2114922,49.2541 42.2359917,50.0018662 C13.4312,51.0802294 1.51522706,33.6006169 0.548293119,0.4298875 L56.3442399,0.4298875 C104.054789,6.06312437 135.4121,9.98119937 150.416176,12.1839637 C160.051494,13.5985019 162.713404,21.8942894 162.713404,28.8337744 Z" id="path-13"></path>
        <path d="M4.73670548,1.07467895 C4.75757534,1.04453421 4.7795,1.01522895 4.80240411,0.986686842 C5.32821918,0.333347368 6.27738356,0.235357895 6.92246575,0.767965789 C9.24384247,2.68456053 11.134411,3.82716053 12.5942466,4.19584211 C14.3027123,4.62733158 16.6818014,4.54422368 19.7314384,3.94667105 L22.3844726,0.309994737 C22.3883904,0.304576316 22.3923836,0.299234211 22.3963767,0.293968421 C22.6523904,-0.0383105263 23.1258425,-0.0974552632 23.4538836,0.161865789 L45.4144041,17.5196632 C47.2945,18.3067079 49.6656027,19.2553895 52.5277123,20.3656316 C55.3898219,21.47595 55.5727534,24.1454 53.0765822,28.3741342 C19.8833288,19.9912263 2.30886986,15.5527763 0.353431507,15.0589368 C0.595732877,11.6508263 0.926486301,9.09546842 1.3455411,7.39293947 C1.70726027,5.92355526 2.83762329,3.81746842 4.73670548,1.07467895 Z" id="path-15"></path>
        <path d="M1.86151467,5.72118519 C1.874432,5.68785185 1.888544,5.65503704 1.90385067,5.62274074 C2.254784,4.8822963 3.14436267,4.5642963 3.890656,4.91244444 C6.57656533,6.16533333 8.664992,6.79177778 10.1560107,6.79177778 C11.9010453,6.79177778 14.1690453,6.1477037 16.9600853,4.85948148 L18.650464,0.803481481 C18.652928,0.797481481 18.6554667,0.791555556 18.6581547,0.78562963 C18.825632,0.411777778 19.266912,0.243481481 19.6437547,0.40962963 L44.8692907,11.5338519 C46.863488,11.8279259 49.368032,12.1574074 52.3829973,12.5222963 C55.3979627,12.8871852 56.2057813,15.3577778 54.8063787,19.9340741 C20.9038293,19.9340741 2.95381333,19.9340741 0.956554667,19.9340741 C0.382890667,16.6666667 0.096096,14.1814074 0.096096,12.4782963 C0.096096,11.0084444 0.684544,8.756 1.86151467,5.72118519 Z" id="path-17"></path>
        <path d="M3.32852754,0.03689 L48.558429,0.03689 C50.2233333,0.03689 51.5729217,1.415883 51.5729217,3.11689 L51.5729217,3.835377 C51.5729217,5.536384 50.2233333,6.915377 48.558429,6.915377 L3.32852754,6.915377 C1.66362319,6.915377 0.314034783,5.536384 0.314034783,3.835377 L0.314034783,3.11689 C0.314034783,1.415883 1.66362319,0.03689 3.32852754,0.03689 Z" id="path-19"></path>
        <path d="M7.51869803,0.677485714 L114.488674,0.677485714 C118.620516,0.677485714 121.969965,3.9917026 121.969965,8.08008312 L121.969965,56.4137883 L3.02992309,56.4137883 C1.37723097,56.4137883 0.0374064579,55.0880571 0.0374064579,53.4527494 L0.0374064579,8.08008312 C0.0374064579,3.9917026 3.38693032,0.677485714 7.51869803,0.677485714 Z" id="path-21"></path>
        <path d="M0.15,0.680148634 L4.07175,0.680148634 C7.7424,0.680148634 10.87365,3.31260328 11.471625,6.90121967 L32.874975,135.352402 L22.59,135.352402 L0.15,0.680148634 Z" id="path-23"></path>
        <path d="M17.9361957,35.7331328 C8.16426383,35.7331328 0.242578723,27.8558043 0.242578723,18.1385617 C0.242578723,8.42131915 8.16426383,0.543982979 17.9361957,0.543982979 C27.7080511,0.543982979 35.6298128,8.42131915 35.6298128,18.1385617 C35.6298128,27.8558043 27.7080511,35.7331328 17.9361957,35.7331328 Z" id="path-25"></path>
        <path d="M73.299975,145.325622 C32.90037,145.325622 0.15,112.8142 0.15,72.7093477 C0.15,32.6045703 32.90037,0.0931405128 73.299975,0.0931405128 C113.699625,0.0931405128 146.450025,32.6045703 146.450025,72.7093477 C146.450025,112.8142 113.699625,145.325622 73.299975,145.325622 Z M73.299975,131.94896 C106.2576,131.94896 132.975,105.426525 132.975,72.7093477 C132.975,39.9922451 106.2576,13.4698103 73.299975,13.4698103 C40.34241,13.4698103 13.6250025,39.9922451 13.6250025,72.7093477 C13.6250025,105.426525 40.34241,131.94896 73.299975,131.94896 Z" id="path-27"></path>
        <polygon id="path-29" points="0.436363636 0.661819412 7.90305455 0.661819412 7.90305455 126.505298 0.436363636 126.505298"></polygon>
        <path d="M89.8264746,1.00565079 L93.1263222,4.28699683 C93.7106889,4.86808095 93.7133,5.81278095 93.1322905,6.39707302 C93.1302762,6.3990873 93.1283365,6.40102698 93.1263222,6.40304127 L5.87980444,93.1612365 C5.2978027,93.7400079 4.35764603,93.7400079 3.77563683,93.1612365 L0.475766825,89.8798905 C-0.108547619,89.2988063 -0.111203492,88.3541063 0.469850794,87.7697397 C0.471812857,87.7678 0.473789841,87.7657857 0.475766825,87.763846 L87.7222921,1.00565079 C88.304346,0.426879365 89.2444952,0.426879365 89.8264746,1.00565079 Z" id="path-31"></path>
        <path d="M126.576642,1.45978182 L126.576642,5.97556364 C126.576642,6.77890909 125.907725,7.43010909 125.082524,7.43010909 L1.51901712,7.43010909 C0.693838353,7.43010909 0.0248994706,6.77890909 0.0248994706,5.97556364 L0.0248994706,1.45978182 C0.0248994706,0.656509091 0.693838353,0.00523636364 1.51901712,0.00523636364 L125.082524,0.00523636364 C125.907725,0.00523636364 126.576642,0.656509091 126.576642,1.45978182 Z" id="path-33"></path>
        <path d="M93.1263222,89.8798905 L89.8264746,93.1612365 C89.2444952,93.7400079 88.304346,93.7400079 87.7222921,93.1612365 L0.475766825,6.40304127 C-0.108547619,5.82195714 -0.111203492,4.87725714 0.469850794,4.29296508 C0.471812857,4.29095079 0.473789841,4.28901111 0.475766825,4.28699683 L3.77563683,1.00565079 C4.35764603,0.426879365 5.2978027,0.426879365 5.87980444,1.00565079 L93.1263222,87.763846 C93.7106889,88.3449302 93.7133,89.2896302 93.1322905,89.8739222 C93.1302762,89.8759365 93.1283365,89.8778762 93.1263222,89.8798905 Z" id="path-35"></path>
        <path d="M149.766127,22.210728 L186.312938,11.8557254 C193.185171,6.64818277 199.648477,2.86700687 205.702858,0.512347168 C207.457268,0.212008301 210.3495,0.458093369 206.662547,4.53594638 C202.975594,8.61372466 199.279343,13.070607 200.283584,14.8272045 C201.287826,16.583802 205.073552,15.3429145 206.117213,18.1154629 C206.813086,19.9638286 200.55521,21.1637642 187.343732,21.7152697 L158.791283,37.9973877 L149.766127,22.210728 Z M33.9298484,47.3819497 L54.6049317,44.5417709 C39.0946028,98.8469089 31.0227402,127.273284 30.3894181,129.820896 C28.9644695,135.553041 34.7407833,143.160829 37.3377384,147.32081 C31.3055224,151.116035 30.4960751,140.329692 22.9067868,145.261781 C15.9796491,149.763576 11.218287,156.820456 1.91594986,152.734681 C0.772281032,152.232423 -0.724047402,149.944272 1.79502737,147.635497 C8.07097011,141.883324 16.9086504,132.11906 17.8760824,129.179191 C19.1953558,125.170239 24.5466112,97.904492 33.9298484,47.3819497 Z" id="path-37"></path>
        <path d="M0.273504,1.33605738 L16.667616,0.147098361 C25.7413333,35.2589016 50.7348053,54.7621967 98.433664,40.361459 L111.448512,85.392959 C66.6788267,97.5316721 24.1318933,85.0933033 9.007712,37.5205574 C5.09249067,25.2055328 1.55067733,12.3153197 0.273504,1.33605738 Z" id="path-39"></path>
        <path d="M51.7190454,0.276110619 L53.3237787,0.0501842744 L53.3387507,0.0634005021 L78.6277789,2.22131696 C84.5358947,44.3337536 101.72996,69.312143 112.959409,99.3051412 L46.7852711,108.621582 C47.3540625,119.451677 48.3243757,130.528724 49.6105684,141.864785 L0.0616890789,148.840629 C2.91450748,87.5623938 20.1336213,38.0408381 51.7190454,0.276110619 Z" id="path-41"></path>
        <path d="M2.76841858,0 C4.88182711,26.6760472 8.95902091,46.7069572 15,60.0926551 L0.617007969,62 C-0.588007758,40.3884505 -0.108052625,19.7532666 2.76841858,0 Z" id="path-43"></path>
    </defs>
    <g id="year-in-review-new" stroke="none" stroke-width="1" fill="none" fill-rule="evenodd" transform="translate(-110.000000, -767.000000)">
        <g id="wheelchair" transform="translate(110.000000, 753.000000)">
            <g id="Page-1" transform="translate(0.000000, 210.000000)">
                <g id="Group-4" transform="translate(74.000000, 3.000000)">
                    <mask id="mask-2" fill="white">
                        <use xlink:href="#path-1"></use>
                    </mask>
                    <g id="Clip-3"></g>
                    <polygon id="Fill-2" fill="#B28B67" mask="url(#mask-2)" points="-6.754575 -0.416860283 40.581675 -6.96688754 51.3699 68.6105602 4.03365 75.1605875"></polygon>
                </g>
                <g id="Group-7" transform="translate(91.000000, 1.000000)">
                    <mask id="mask-4" fill="white">
                        <use xlink:href="#path-3"></use>
                    </mask>
                    <g id="Clip-6"></g>
                    <polygon id="Fill-5" fill="#2C2C2C" mask="url(#mask-4)" points="-8.97357877 -0.977620339 20.2184225 -5.06969492 27.1142391 43.870461 -2.07768738 47.9625356"></polygon>
                </g>
                <g id="Group-10" transform="translate(63.000000, 0.000000)">
                    <mask id="mask-6" fill="white">
                        <use xlink:href="#path-5"></use>
                    </mask>
                    <g id="Clip-9"></g>
                    <polygon id="Fill-8" fill="#8991DC" mask="url(#mask-6)" points="-10.9576815 2.66081109 42.7203108 -4.71809896 53.8670569 72.8595936 0.188989231 80.2385037"></polygon>
                </g>
                <g id="Group-13" transform="translate(64.000000, 9.000000)">
                    <mask id="mask-8" fill="white">
                        <use xlink:href="#path-7"></use>
                    </mask>
                    <g id="Clip-12"></g>
                    <polygon id="Fill-11" fill-opacity="0.2" fill="#000000" mask="url(#mask-8)" points="-5.52693095 0.535820682 26.9530238 -4.05327087 35.206331 54.9852491 2.72637619 59.5743406"></polygon>
                </g>
                <g id="Group-16" transform="translate(148.000000, 161.000000)">
                    <mask id="mask-10" fill="white">
                        <use xlink:href="#path-9"></use>
                    </mask>
                    <g id="Clip-15"></g>
                    <polygon id="Fill-14" fill="#B28B67" mask="url(#mask-10)" points="-3.73970639 139.694518 90.2477704 139.694518 90.2477704 -3.64695519 -3.73970639 -3.64695519"></polygon>
                </g>
                <g id="Group-19" transform="translate(148.000000, 161.000000)">
                    <mask id="mask-12" fill="white">
                        <use xlink:href="#path-11"></use>
                    </mask>
                    <g id="Clip-18"></g>
                    <polygon id="Fill-17" fill="#1F28CF" mask="url(#mask-12)" points="33.6913919 -9.68418286 76.1151649 5.95362857 37.7647765 112.663646 -4.6589965 97.0258343"></polygon>
                </g>
                <g id="Group-22" transform="translate(72.000000, 149.000000)">
                    <mask id="mask-14" fill="white">
                        <use xlink:href="#path-13"></use>
                    </mask>
                    <g id="Clip-21"></g>
                    <polygon id="Fill-20" fill="#2B44FF" mask="url(#mask-14)" points="-3.19023899 122.505963 166.451861 122.505963 166.451861 -3.28878813 -3.19023899 -3.28878813"></polygon>
                </g>
                <g id="Group-25" transform="translate(142.000000, 267.000000)">
                    <mask id="mask-16" fill="white">
                        <use xlink:href="#path-15"></use>
                    </mask>
                    <g id="Clip-24"></g>
                    <polygon id="Fill-23" fill="#E4E4E4" mask="url(#mask-16)" points="1.58708904 -9.3612 63.1146849 6.17753421 56.4719658 33.1642474 -5.05563014 17.6255132"></polygon>
                </g>
                <g id="Group-28" transform="translate(199.000000, 273.000000)">
                    <mask id="mask-18" fill="white">
                        <use xlink:href="#path-17"></use>
                    </mask>
                    <g id="Clip-27"></g>
                    <polygon id="Fill-26" fill="#E4E4E4" mask="url(#mask-18)" points="-3.63723733 23.6377778 59.2051637 23.6377778 59.2051637 -3.35811852 -3.63723733 -3.35811852"></polygon>
                </g>
                <g id="Group-31" transform="translate(199.000000, 293.000000)">
                    <mask id="mask-20" fill="white">
                        <use xlink:href="#path-19"></use>
                    </mask>
                    <g id="Clip-30"></g>
                    <polygon id="Fill-29" fill="#2F3676" mask="url(#mask-20)" points="-3.45408116 10.7653693 55.3410904 10.7653693 55.3410904 -3.8130792 -3.45408116 -3.8130792"></polygon>
                </g>
                <g id="Group-34" transform="translate(61.000000, 154.000000)">
                    <mask id="mask-22" fill="white">
                        <use xlink:href="#path-21"></use>
                    </mask>
                    <g id="Clip-33"></g>
                    <polygon id="Fill-32" fill="#2F3676" mask="url(#mask-22)" points="-3.70323933 60.115087 125.710611 60.115087 125.710611 -3.02380558 -3.70323933 -3.02380558"></polygon>
                </g>
                <g id="Group-37" transform="translate(173.000000, 154.000000)">
                    <mask id="mask-24" fill="white">
                        <use xlink:href="#path-23"></use>
                    </mask>
                    <g id="Clip-36"></g>
                    <polygon id="Fill-35" fill="#2F3676" mask="url(#mask-24)" points="-3.6 139.068249 36.6249975 139.068249 36.6249975 -3.03569836 -3.6 -3.03569836"></polygon>
                </g>
                <g id="Group-40" transform="translate(183.000000, 273.000000)">
                    <mask id="mask-26" fill="white">
                        <use xlink:href="#path-25"></use>
                    </mask>
                    <g id="Clip-39"></g>
                    <polygon id="Fill-38" fill="#191847" mask="url(#mask-26)" points="-3.58720851 39.56292 39.4596 39.56292 39.4596 -3.28582723 -3.58720851 -3.28582723"></polygon>
                </g>
                <g id="Group-43" transform="translate(0.000000, 162.000000)">
                    <mask id="mask-28" fill="white">
                        <use xlink:href="#path-27"></use>
                    </mask>
                    <g id="Clip-42"></g>
                    <polygon id="Fill-41" fill="#191847" mask="url(#mask-28)" points="-3.6 149.069212 150.200025 149.069212 150.200025 -3.65045672 -3.6 -3.65045672"></polygon>
                </g>
                <g id="Group-46" transform="translate(69.000000, 171.000000)">
                    <mask id="mask-30" fill="white">
                        <use xlink:href="#path-29"></use>
                    </mask>
                    <g id="Clip-45"></g>
                    <polygon id="Fill-44" fill="#191847" mask="url(#mask-30)" points="-3.2 130.240592 11.5393964 130.240592 11.5393964 -3.07347471 -3.2 -3.07347471"></polygon>
                </g>
                <g id="Group-49" transform="translate(26.000000, 187.000000)">
                    <mask id="mask-32" fill="white">
                        <use xlink:href="#path-31"></use>
                    </mask>
                    <g id="Clip-48"></g>
                    <polygon id="Fill-47" fill="#191847" mask="url(#mask-32)" points="88.5394952 -5.57509524 99.4596095 5.34501905 5.06264603 99.7419825 -5.85748317 88.8218683"></polygon>
                </g>
                <g id="Group-52" transform="translate(10.000000, 231.000000)">
                    <mask id="mask-34" fill="white">
                        <use xlink:href="#path-33"></use>
                    </mask>
                    <g id="Clip-51"></g>
                    <polygon id="Fill-50" fill="#191847" mask="url(#mask-34)" points="-3.71039465 11.0664727 130.311958 11.0664727 130.311958 -3.63113455 -3.71039465 -3.63113455"></polygon>
                </g>
                <g id="Group-55" transform="translate(26.000000, 187.000000)">
                    <mask id="mask-36" fill="white">
                        <use xlink:href="#path-35"></use>
                    </mask>
                    <g id="Clip-54"></g>
                    <polygon id="Fill-53" fill="#191847" mask="url(#mask-36)" points="99.4596095 88.8218683 88.5394952 99.7419825 -5.85748317 5.34501905 5.06264603 -5.57509524"></polygon>
                </g>
                <g id="Group-58" transform="translate(11.000000, 82.000000)">
                    <mask id="mask-38" fill="white">
                        <use xlink:href="#path-37"></use>
                    </mask>
                    <g id="Clip-57"></g>
                    <polygon id="Fill-56" fill="#997659" mask="url(#mask-38)" points="-20.3748373 28.6600549 211.433697 -4.07299558 229.688248 126.430482 -2.12029384 159.163457"></polygon>
                </g>
                <g id="Group-61" transform="translate(92.000000, 55.000000)">
                    <mask id="mask-40" fill="white">
                        <use xlink:href="#path-39"></use>
                    </mask>
                    <g id="Clip-60"></g>
                    <polygon id="Fill-59" fill="#AFB9C5" mask="url(#mask-40)" points="-3.66807467 -2.49351639 110.212331 -8.39006557 115.524789 91.7615656 1.644384 97.6581148"></polygon>
                </g>
                <g id="Group-64" transform="translate(31.000000, 52.000000)">
                    <mask id="mask-42" fill="white">
                        <use xlink:href="#path-41"></use>
                    </mask>
                    <g id="Clip-63"></g>
                    <polygon id="Fill-62" fill="#C5CFD6" mask="url(#mask-42)" points="-23.5751082 7.11632285 101.312752 -10.4662726 121.785899 135.463572 -3.10191691 153.046242"></polygon>
                </g>
                <g id="Group-67" transform="translate(76.000000, 100.000000)">
                    <mask id="mask-44" fill="white">
                        <use xlink:href="#path-43"></use>
                    </mask>
                    <g id="Clip-66"></g>
                    <polygon id="Fill-65" fill-opacity="0.1" fill="#000000" mask="url(#mask-44)" points="-12.6315789 -1.52780351 9.61900312 -4.48192771 19.7368421 63.5278786 -2.51373997 66.4819277"></polygon>
                </g>
            </g>
            <text id="?" font-family="PlayfairDisplay-Bold, Playfair Display" font-size="48" font-weight="bold" fill="#634B80">
                <tspan x="125" y="165">?</tspan>
            </text>
            <text id="?-copy-5" font-family="PlayfairDisplay-Bold, Playfair Display" font-size="64" font-weight="bold" fill="#742745">
                <tspan x="234" y="105">?</tspan>
            </text>
            <text id="?-copy" font-family="PlayfairDisplay-Bold, Playfair Display" font-size="36" font-weight="bold" fill="#F56B23">
                <tspan x="100" y="92">?</tspan>
            </text>
            <text id="?-copy-2" font-family="PlayfairDisplay-Bold, Playfair Display" font-size="72" font-weight="bold" fill="#44576C">
                <tspan x="165" y="196">?</tspan>
            </text>
            <text id="?-copy-3" font-family="PlayfairDisplay-Bold, Playfair Display" font-size="20" font-weight="bold" fill="#4FA173">
                <tspan x="192" y="116">?</tspan>
            </text>
            <text id="?-copy-4" font-family="PlayfairDisplay-Bold, Playfair Display" font-size="48" font-weight="bold" fill="#44576C">
                <tspan x="172" y="52">?</tspan>
            </text>
        </g>
    </g>
</svg>